<svg width="998" height="693" viewBox="0 0 998 693" fill="none" xmlns="http://www.w3.org/2000/svg">
<path d="M402.491 51.4921L387.424 60.7289L396.569 44.6558C393.98 42.6601 390.775 41.5547 387.463 41.5143H387.22C386.174 41.5326 385.127 41.4604 384.094 41.2987L378.988 44.4214L381.172 40.5766C377.552 39.3535 374.426 37.0558 372.24 34.0123L363.105 39.6388L368.91 29.483C363.571 23.2938 356.368 19.4865 348.436 19.4865C338.932 19.4865 330.466 24.9536 325 33.459C323.384 36.0129 321.094 38.1057 318.364 39.5228C315.635 40.94 312.564 41.6306 309.467 41.5237H308.963C298.468 41.5237 289.964 53.0206 289.964 67.19C289.964 81.3595 298.468 92.8564 308.963 92.8564C311.267 92.8481 313.536 92.3011 315.574 91.2622C322.418 87.8206 331.408 87.755 338.572 90.8214C341.649 92.1476 344.98 92.8329 348.349 92.8329C351.717 92.8329 355.048 92.1476 358.125 90.8214C361.732 89.3112 365.634 88.5672 369.565 88.64C373.496 88.7128 377.365 89.6007 380.91 91.2434C382.933 92.2635 385.18 92.8005 387.463 92.8095C397.957 92.8095 406.462 81.322 406.462 67.1432C406.515 61.6874 405.149 56.306 402.491 51.4921Z" fill="#F2F2F2"/>
<path opacity="0.03" d="M374.095 89.0491C368.612 88.0444 362.943 88.6419 357.814 90.7652C354.739 92.0911 351.41 92.7764 348.043 92.7764C344.676 92.7764 341.346 92.0911 338.272 90.7652C334.634 89.2242 330.694 88.4647 326.723 88.5392C322.752 88.6137 318.845 89.5204 315.273 91.1965C313.237 92.2426 310.968 92.793 308.662 92.8001C299.332 92.8001 291.585 83.732 289.964 71.7663C291.827 70.4524 293.409 68.8029 294.624 66.9087C300.089 58.4033 308.555 52.9456 318.059 52.9456C327.563 52.9456 335.932 58.3377 341.359 66.7587C342.99 69.2995 345.272 71.3907 347.984 72.8298C350.697 74.2689 353.749 75.0073 356.843 74.9734H357.086C364.542 74.9265 370.969 80.675 374.095 89.0491Z" fill="black"/>
<path d="M273.897 451.313L267.79 447.646C267.208 447.299 266.635 446.924 266.052 446.568C279.049 444.408 290.898 438.043 299.654 428.518C308.41 418.994 313.552 406.875 314.235 394.155C314.918 381.434 311.102 368.867 303.413 358.518C295.725 348.169 284.621 340.654 271.926 337.207L272.227 360.332L259.072 335.172H258.907C243.514 334.482 228.466 339.725 217.074 349.748C205.681 359.772 198.876 373.755 198.153 388.624C198.095 389.702 198.153 390.753 198.153 391.812C193.581 386.767 189.416 381.356 186.669 375.43C181.106 363.436 180.999 349.848 181.436 333.325C182.31 300.597 183.776 267.607 185.678 234.729C199.415 233.252 212.157 227.093 221.615 217.358C231.074 207.623 236.631 194.95 237.287 181.615C237.365 179.899 237.336 178.211 237.287 176.523C237.287 176.101 237.287 175.688 237.219 175.266C237.103 173.634 236.947 172.022 236.685 170.427C236.685 170.165 236.588 169.912 236.54 169.658C236.307 168.308 236.015 166.976 235.685 165.664C235.559 165.167 235.433 164.679 235.297 164.191C234.889 162.757 234.443 161.378 233.918 159.953C233.744 159.493 233.54 159.015 233.355 158.584C232.948 157.561 232.501 156.549 232.025 155.555C231.773 155.029 231.53 154.504 231.268 153.989C231.19 153.857 231.142 153.717 231.064 153.585C224.928 141.886 214.744 132.633 202.28 127.432C189.816 122.231 175.86 121.411 162.835 125.115L163.223 155.217L150.215 130.348C139.518 136.256 131.055 145.31 126.058 156.191C121.062 167.071 119.794 179.208 122.439 190.833H122.381C122.469 191.236 122.595 191.621 122.692 192.014C122.876 192.755 123.07 193.487 123.284 194.218C123.556 195.156 123.867 196.094 124.187 197.031C124.43 197.725 124.663 198.41 124.934 199.094C125.332 200.088 125.779 201.054 126.226 202.02C126.488 202.583 126.721 203.164 127.002 203.718C127.74 205.168 128.543 206.584 129.41 207.966C129.711 208.453 130.051 208.903 130.381 209.382C131.002 210.319 131.623 211.257 132.322 212.129C132.74 212.683 133.186 213.217 133.623 213.752C134.264 214.53 134.914 215.299 135.565 216.04C136.041 216.574 136.536 217.09 137.031 217.596C137.749 218.328 138.477 219.031 139.235 219.716C139.739 220.175 140.205 220.653 140.759 221.085C141.613 221.826 142.506 222.52 143.409 223.204C143.865 223.551 144.312 223.907 144.778 224.245C146.157 225.183 147.574 226.121 149.04 227.058C149.312 227.218 149.613 227.349 149.884 227.508C151.117 228.202 152.36 228.868 153.641 229.468C154.195 229.731 154.758 229.965 155.321 230.209C156.369 230.659 157.428 231.1 158.515 231.503L160.457 232.16C161.525 232.507 162.612 232.835 163.709 233.097C164.35 233.266 165 233.444 165.651 233.594C166.835 233.866 168.048 234.091 169.272 234.298L169.505 234.345C168.709 248.217 167.997 262.093 167.369 275.972C163.906 269.099 159.027 262.982 153.029 257.996C147.031 253.01 140.042 249.261 132.491 246.978C124.939 244.695 116.984 243.926 109.114 244.719C101.244 245.512 93.6242 247.85 86.7231 251.59L96.9943 278.785L75.8596 259.186C64.5292 269.193 57.7759 283.137 57.084 297.952C56.8143 303.149 57.3112 308.355 58.5597 313.416C61.2236 324.358 67.2281 334.275 75.7952 341.882C84.3622 349.489 95.097 354.436 106.608 356.081C118.12 357.726 129.878 355.994 140.358 351.109C150.839 346.224 159.559 338.411 165.388 328.683C165.388 330.089 165.291 331.496 165.252 332.912C164.864 347.485 164.379 365.621 171.903 381.816C176.999 392.787 185.193 401.706 193.261 409.695C198.532 414.89 203.998 419.926 209.599 424.793C215.114 431.944 222.308 437.73 230.588 441.673C239.792 448.518 249.325 454.961 259.179 460.906L265.334 464.601C270.868 467.911 276.537 471.315 282.09 474.85C281.119 474.757 280.149 474.653 279.178 474.606C266.857 474.052 254.674 477.296 244.388 483.871C234.102 490.445 226.247 500.009 221.958 511.179L258.286 539.677L218.346 530.731C218.357 540.224 220.859 549.559 225.617 557.864C230.376 566.169 237.236 573.174 245.557 578.224C253.878 583.274 263.388 586.205 273.2 586.742C283.011 587.279 292.804 585.405 301.662 581.295L299.012 584.53C297.225 586.674 295.462 588.806 293.721 590.925C270.091 619.836 263.519 647.275 275.217 668.196L289.449 660.779C278.013 640.411 295.128 614.341 306.361 600.631C308.069 598.549 309.804 596.455 311.564 594.348C326.66 576.231 343.766 555.694 343.349 530.506C342.698 492.518 304.555 469.674 273.897 451.313Z" fill="#F2F2F2"/>
<path d="M536.93 409.808L544.541 405.232C545.269 404.791 545.978 404.294 546.706 403.881C530.428 401.178 515.594 393.187 504.657 381.231C493.721 369.276 487.338 354.072 486.564 338.136C486.013 327.179 488.159 316.252 492.826 306.252C497.179 296.883 503.608 288.552 511.661 281.847C519.713 275.142 529.19 270.227 539.425 267.448L539.046 296.302L555.424 264.916H555.618C574.828 264.052 593.606 270.595 607.823 283.103C622.04 295.612 630.531 313.063 631.429 331.618C631.497 332.959 631.429 334.272 631.429 335.594C637.147 329.302 642.331 322.55 645.758 315.161C652.709 300.156 652.845 283.277 652.292 262.646C651.205 221.807 649.38 180.659 647.001 139.641C629.862 137.799 613.965 130.115 602.164 117.968C590.363 105.822 583.432 90.0089 582.616 73.3701C582.519 71.232 582.549 69.1221 582.616 67.0215C582.616 66.4964 582.646 65.9712 582.704 65.4461C582.84 63.4112 583.044 61.395 583.354 59.4163C583.403 59.0881 583.481 58.7693 583.539 58.4786C583.836 56.7906 584.196 55.1277 584.616 53.4897C584.772 52.8802 584.927 52.2613 585.092 51.6142C585.607 49.8325 586.16 48.0601 586.81 46.3347C587.024 45.7533 587.276 45.2 587.509 44.6279C588.034 43.3432 588.587 42.0866 589.179 40.8769C589.49 40.2299 589.791 39.5735 590.15 38.9264C590.228 38.767 590.305 38.5888 590.393 38.4294C598.041 23.828 610.746 12.2786 626.299 5.79012C641.851 -0.698318 659.266 -1.7151 675.514 2.91666L675.029 40.4268L691.261 9.40592C704.605 16.7766 715.162 28.0739 721.389 41.6491C727.617 55.2244 729.191 70.367 725.88 84.867H725.958C725.851 85.364 725.686 85.8047 725.569 86.3393C725.336 87.277 725.094 88.2148 724.831 89.0869C724.492 90.2591 724.103 91.4031 723.705 92.5472C723.404 93.4099 723.113 94.2726 722.735 95.126C722.239 96.3638 721.686 97.5735 721.123 98.7739C720.793 99.4772 720.502 100.199 720.152 100.893C719.181 102.703 718.211 104.475 717.152 106.192C716.783 106.801 716.356 107.373 715.958 107.964C715.182 109.127 714.395 110.271 713.551 111.387C713.026 112.081 712.473 112.737 711.929 113.412C711.133 114.35 710.327 115.344 709.473 116.272C708.878 116.898 708.266 117.545 707.638 118.213C706.755 119.151 705.833 119.995 704.901 120.858C704.27 121.43 703.648 122.011 702.959 122.565C701.881 123.502 700.775 124.346 699.639 125.2C699.076 125.631 698.522 126.091 697.94 126.503C696.221 127.722 694.455 128.885 692.62 129.964C692.28 130.16 691.911 130.329 691.562 130.526C690.041 131.401 688.481 132.217 686.882 132.974C686.193 133.302 685.484 133.583 684.785 133.911C683.475 134.484 682.154 135.027 680.805 135.524C680.009 135.815 679.213 136.087 678.417 136.35C677.077 136.79 675.728 137.184 674.359 137.55C673.553 137.766 672.747 137.981 671.922 138.178C670.437 138.516 668.932 138.797 667.408 139.05L667.107 139.107C668.116 156.418 669.006 173.732 669.776 191.049C674.097 182.475 680.186 174.844 687.67 168.626C695.154 162.407 703.875 157.732 713.297 154.886C722.719 152.041 732.644 151.086 742.463 152.08C752.281 153.074 761.785 155.995 770.392 160.666L757.665 194.584L784.022 170.137C798.16 182.619 806.586 200.014 807.448 218.497C807.78 224.956 807.163 231.429 805.613 237.721C802.298 251.382 794.811 263.765 784.121 273.266C773.432 282.766 760.034 288.945 745.665 291.001C731.296 293.057 716.619 290.895 703.537 284.796C690.455 278.696 679.573 268.941 672.301 256.795C672.301 258.548 672.427 260.321 672.475 262.074C672.961 280.257 673.563 302.885 664.185 323.085C657.826 336.785 647.593 347.898 637.477 357.866C630.895 364.355 624.1 370.635 617.09 376.705C610.2 385.622 601.216 392.831 590.878 397.739C579.393 406.282 567.501 414.319 555.21 421.746L547.541 426.369C540.638 430.495 533.571 434.743 526.629 439.15C527.853 439.038 529.056 438.907 530.299 438.85C545.665 438.157 560.862 442.2 573.693 450.396C586.525 458.591 596.327 470.515 601.683 484.444L556.385 520.079L606.217 508.929C606.2 520.771 603.076 532.416 597.137 542.776C591.199 553.136 582.639 561.874 572.257 568.173C561.875 574.472 550.01 578.127 537.77 578.796C525.53 579.466 513.314 577.128 502.262 572.002C503.388 573.352 504.505 574.703 505.631 576.044C507.854 578.716 510.077 581.38 512.242 584.024C541.716 620.081 549.919 654.356 535.318 680.425L517.572 671.169C531.775 645.756 510.407 613.235 496.398 596.149C494.272 593.552 492.098 590.935 489.913 588.31C471.079 565.71 449.731 540.09 450.255 508.666C451.061 461.206 498.67 432.708 536.93 409.808Z" fill="#F2F2F2"/>
<path d="M853.018 176.495V505.252C853.018 506.14 852.837 507.019 852.486 507.84C852.134 508.66 851.618 509.405 850.968 510.033C850.318 510.661 849.547 511.159 848.697 511.499C847.848 511.839 846.938 512.014 846.019 512.014H152.282C151.364 512.014 150.454 511.839 149.605 511.499C148.757 511.159 147.986 510.661 147.336 510.033C146.687 509.405 146.172 508.659 145.822 507.839C145.471 507.019 145.291 506.14 145.292 505.252V176.495C145.291 175.607 145.471 174.728 145.822 173.908C146.172 173.088 146.687 172.342 147.336 171.714C147.986 171.086 148.757 170.588 149.605 170.248C150.454 169.908 151.364 169.733 152.282 169.733H846.019C847.875 169.733 849.656 170.446 850.968 171.714C852.281 172.982 853.018 174.701 853.018 176.495V176.495Z" fill="#3F3D56"/>
<path d="M853.018 174.244V189.426H145.292V174.244C145.292 173.048 145.784 171.9 146.66 171.055C147.536 170.209 148.724 169.733 149.962 169.733H848.349C849.587 169.733 850.775 170.209 851.651 171.055C852.526 171.9 853.018 173.048 853.018 174.244Z" fill="#CBCEDA"/>
<path d="M160.826 183.8C163.506 183.8 165.68 181.701 165.68 179.111C165.68 176.521 163.506 174.422 160.826 174.422C158.145 174.422 155.971 176.521 155.971 179.111C155.971 181.701 158.145 183.8 160.826 183.8Z" fill="#6C63FF"/>
<path d="M174.417 183.8C177.098 183.8 179.271 181.701 179.271 179.111C179.271 176.521 177.098 174.422 174.417 174.422C171.736 174.422 169.563 176.521 169.563 179.111C169.563 181.701 171.736 183.8 174.417 183.8Z" fill="#6C63FF"/>
<path d="M188.008 183.8C190.689 183.8 192.863 181.701 192.863 179.111C192.863 176.521 190.689 174.422 188.008 174.422C185.328 174.422 183.154 176.521 183.154 179.111C183.154 181.701 185.328 183.8 188.008 183.8Z" fill="#6C63FF"/>
<path opacity="0.2" d="M739.258 409.77V466.204L258.509 466.457L258.072 353.646C263.15 368.096 275.683 370.694 297.75 345.206C351.679 282.995 424.985 266.622 481.729 264.906C520.562 263.724 559.307 271.47 596.286 286.859C611.644 293.264 672.339 300.156 712.395 303.232C719.665 303.786 726.453 306.962 731.409 312.129C736.364 317.297 739.125 324.077 739.141 331.121L739.258 409.77Z" fill="#6C63FF"/>
<path opacity="0.2" d="M739.258 354.583V466.739H258.072V442.357C271.829 439.009 323.282 426.134 347.951 390.574C377.463 348 417.578 336.804 448.615 335.631C469.885 334.816 491.059 340.095 511.271 350.636C534.008 362.489 577.84 376.789 611.139 335.275C647.972 289.372 704.551 327.201 718.9 341.108C724.026 346.022 739.258 354.583 739.258 354.583Z" fill="#6C63FF"/>
<path d="M258.072 235.639V464.976H739.258" stroke="#6C63FF" stroke-width="2" stroke-miterlimit="10"/>
<path d="M318.7 464.976V325.166" stroke="#6C63FF" stroke-miterlimit="10"/>
<path d="M377.104 464.976V287.768" stroke="#6C63FF" stroke-miterlimit="10"/>
<path d="M435.509 464.976V269.979" stroke="#6C63FF" stroke-miterlimit="10"/>
<path d="M493.913 464.976V264.465" stroke="#6C63FF" stroke-miterlimit="10"/>
<path d="M552.317 464.976V270.598" stroke="#6C63FF" stroke-miterlimit="10"/>
<path d="M610.722 464.976V293.282" stroke="#6C63FF" stroke-miterlimit="10"/>
<path d="M669.126 464.976V304.929" stroke="#6C63FF" stroke-miterlimit="10"/>
<path d="M318.379 333.756C324.342 333.756 329.175 329.087 329.175 323.328C329.175 317.569 324.342 312.9 318.379 312.9C312.417 312.9 307.584 317.569 307.584 323.328C307.584 329.087 312.417 333.756 318.379 333.756Z" fill="#6C63FF"/>
<path d="M376.784 298.196C382.746 298.196 387.579 293.528 387.579 287.768C387.579 282.009 382.746 277.341 376.784 277.341C370.822 277.341 365.988 282.009 365.988 287.768C365.988 293.528 370.822 298.196 376.784 298.196Z" fill="#6C63FF"/>
<path d="M435.188 281.026C441.15 281.026 445.984 276.357 445.984 270.598C445.984 264.839 441.15 260.17 435.188 260.17C429.226 260.17 424.393 264.839 424.393 270.598C424.393 276.357 429.226 281.026 435.188 281.026Z" fill="#6C63FF"/>
<path d="M493.583 274.893C499.545 274.893 504.378 270.224 504.378 264.465C504.378 258.706 499.545 254.037 493.583 254.037C487.621 254.037 482.787 258.706 482.787 264.465C482.787 270.224 487.621 274.893 493.583 274.893Z" fill="#6C63FF"/>
<path d="M551.987 281.026C557.949 281.026 562.783 276.357 562.783 270.598C562.783 264.839 557.949 260.17 551.987 260.17C546.025 260.17 541.192 264.839 541.192 270.598C541.192 276.357 546.025 281.026 551.987 281.026Z" fill="#6C63FF"/>
<path d="M610.392 304.32C616.354 304.32 621.187 299.651 621.187 293.892C621.187 288.133 616.354 283.464 610.392 283.464C604.429 283.464 599.596 288.133 599.596 293.892C599.596 299.651 604.429 304.32 610.392 304.32Z" fill="#6C63FF"/>
<path d="M668.796 316.586C674.758 316.586 679.591 311.917 679.591 306.158C679.591 300.399 674.758 295.73 668.796 295.73C662.834 295.73 658 300.399 658 306.158C658 311.917 662.834 316.586 668.796 316.586Z" fill="#6C63FF"/>
<path d="M499 693C774.59 693 998 684.183 998 673.307C998 662.431 774.59 653.614 499 653.614C223.41 653.614 0 662.431 0 673.307C0 684.183 223.41 693 499 693Z" fill="#3F3D56"/>
<path d="M55.8608 330.765C55.8219 331.577 55.5496 332.363 55.0744 333.034C58.9577 332.921 62.4041 330.455 65.9864 329.283C65.3457 332.921 65.9864 337.235 66.4718 340.33C66.94 343.331 67.714 346.281 68.7824 349.135C71.2386 359.328 75.714 369.353 79.7235 379.143C81.4519 383.024 82.7535 387.069 83.6068 391.212C86.3348 407.013 76.8984 422.299 75.1121 438.212C74.9761 439.089 74.9761 439.98 75.1121 440.857C74.9515 441.021 74.8084 441.2 74.6849 441.391C68.0931 451.163 68.9474 467.517 70.1318 479.089C71.3162 490.661 75.1121 501.82 78.6944 512.933C79.7617 515.995 80.5956 519.13 81.1894 522.31C81.7586 526.665 81.8497 531.065 81.4613 535.439C80.2769 555.797 77.3062 576.334 80.8108 596.393C83.3641 611.012 88.9366 624.31 89.5482 639.117C90.0103 638.024 90.7438 637.058 91.684 636.303L92.7324 675.192C92.6842 675.555 92.7279 675.924 92.8598 676.267C92.9917 676.61 93.2078 676.917 93.4897 677.161C94.2372 677.621 95.208 677.161 96.0915 677.039C98.6544 676.739 100.295 679.431 101.994 681.297C104.547 684.11 108.479 685.442 112.333 685.732C116.213 685.873 120.096 685.532 123.886 684.72C125.663 684.41 127.546 684.054 128.876 682.844C129.556 682.174 130.064 681.359 130.357 680.465C130.651 679.57 130.722 678.622 130.565 677.696C129.808 671.966 123.42 668.703 120.207 663.817C116.411 658.041 117.294 650.304 113.586 644.462C112.314 642.464 110.557 640.776 109.421 638.704C108.848 637.427 108.396 636.103 108.071 634.747C109.224 635.083 110.317 635.585 111.314 636.238C110.964 633.199 110.605 630.152 110.256 627.104L110.1 625.791C109.625 621.674 109.13 617.567 108.78 613.441C107.586 599.862 111.576 586.556 108.78 573.193C108.198 570.379 109.13 567.444 109.994 564.678C114.902 548.918 117.896 532.661 118.915 516.233C119.265 510.438 119.255 504.849 121.177 499.354C123.43 508.216 130.39 515.202 134.769 523.332C137.468 528.396 139.147 533.929 142.089 538.861C143.506 541.262 145.234 543.55 146.137 546.157C147.535 550.236 146.797 554.663 146.137 558.92C142.982 580.957 143.351 603.388 144.36 625.613C143.402 634.117 141.377 642.478 138.332 650.51C137.128 653.68 135.817 657.375 137.681 660.235C138.467 661.284 139.456 662.175 140.594 662.861C143.353 664.756 146.254 666.452 149.273 667.934C150.17 668.503 151.248 668.742 152.311 668.609C152.971 668.387 153.593 668.071 154.156 667.671C156.515 666.302 159.563 666.518 162.165 667.399C164.767 668.281 167.116 669.753 169.641 670.813C174.932 673.01 180.838 673.413 186.397 671.957C188.746 671.328 191.251 670.128 191.979 667.906C192.707 665.683 191.367 663.339 189.513 661.876C187.659 660.413 185.368 659.625 183.242 658.556C178.582 656.209 174.778 652.541 172.339 648.044C170.874 645.078 169.723 641.977 168.903 638.788C167.777 634.962 166.654 631.136 165.534 627.31C166.173 627.717 166.783 628.165 167.359 628.651C168.942 609.709 170.543 590.71 174.747 572.142C176.757 563.262 179.378 554.269 178.359 545.238C177.825 540.493 176.291 535.907 174.834 531.341C170.304 517.093 166.337 502.695 162.932 488.148C164.201 486.777 165.19 485.186 165.845 483.459C166.937 480.247 167.536 476.898 167.621 473.519C169.25 450.725 169.185 427.848 167.427 405.063C166.981 399.286 166.282 393.219 163.932 387.967H165.311C163.67 387.967 160.991 372.232 160.67 370.478C159.573 364.402 158.806 358.288 157.67 352.22C157.117 349.266 156.496 346.312 155.729 343.405C155.205 341.474 153.108 329.48 151.438 328.139C151.258 327.994 151.055 327.88 150.836 327.801C149.998 325.106 148.163 322.803 145.681 321.331C142.992 319.868 139.788 319.821 136.652 320.055C135.766 318.805 134.879 317.57 133.992 316.351C132.363 314.331 131.117 312.049 130.313 309.609C130.062 308.587 129.912 307.545 129.866 306.495C129.866 305.792 129.818 305.089 129.789 304.385C129.789 304.029 129.789 303.682 129.789 303.326C129.755 302.625 129.677 301.927 129.556 301.235V301.235C129.458 300.663 129.313 300.109 129.157 299.547C129.09 299.312 129.002 299.068 128.925 298.834C128.478 297.418 127.954 296.021 127.565 294.595C126.371 289.991 126.973 285.162 127.158 280.417C127.342 275.671 127.022 270.645 124.245 266.688C122.216 263.781 118.964 261.577 117.877 258.248C117.362 256.663 117.391 254.919 116.634 253.419C115.65 251.751 114.079 250.479 112.207 249.836C110.013 248.899 105.605 247.661 103.246 248.758C102.804 248.97 102.414 249.271 102.101 249.639C99.6058 249.761 97.0914 250.09 94.8974 249.03C93.2081 248.214 91.9849 246.667 90.3442 245.776C86.461 243.675 81.5098 245.776 78.0537 248.514C72.5598 252.861 68.545 258.703 66.5301 265.281C64.9962 270.354 64.3749 276.281 59.9771 279.479C58.1519 280.801 55.8026 281.532 54.4725 283.305C53.5676 284.747 53.0658 286.392 53.0163 288.078C52.56 291.923 52.1814 295.88 53.2396 299.612C54.0357 302.426 55.5987 304.939 56.5695 307.677C57.8637 311.551 57.9781 315.703 56.8989 319.638C55.8197 323.574 53.5925 327.126 50.4825 329.874C52.0868 330.836 54.0163 331.155 55.8608 330.765ZM149.215 444.542C150.536 443.851 151.688 442.893 152.591 441.732C153.494 440.572 154.127 439.237 154.447 437.818C154.554 438.184 154.641 438.55 154.739 438.916C155.984 443.812 155.731 448.953 154.01 453.713C152.722 450.514 151.116 447.443 149.215 444.542V444.542ZM151.156 423.78C149.539 421.541 148.172 419.143 147.079 416.625C145.584 412.574 145.924 408.185 146.283 403.853C146.475 400.583 146.942 397.334 147.681 394.138C148.11 404.087 149.281 413.994 151.185 423.78H151.156Z" fill="url(#paint0_linear)"/>
<path d="M113.586 252.312C115.429 252.955 116.973 254.217 117.935 255.866C118.673 257.357 118.653 259.092 119.158 260.667C120.226 263.987 123.43 266.181 125.41 269.107C128.109 273.036 128.429 278.044 128.245 282.751C128.06 287.459 127.478 292.27 128.653 296.818C129.225 299.04 130.216 301.169 130.594 303.429C131.08 306.186 130.672 309.055 131.381 311.766C132.169 314.187 133.395 316.453 135.002 318.461L141.322 327.389C138.5 326.733 135.721 325.913 133.002 324.932C133.842 327.482 135.402 329.756 137.507 331.496L132.934 326.151C132.007 324.922 130.856 323.866 129.536 323.037C127.857 322.1 125.876 321.968 123.993 321.603C120.362 320.89 116.741 319.099 114.964 315.976C112.605 311.775 114.11 306.505 112.799 301.91C111.828 298.553 109.44 295.786 107.79 292.682C104.062 285.677 104.285 277.406 103.12 269.595C102.625 266.285 101.858 263.031 101.839 259.636C101.839 257.17 102.091 252.462 104.751 251.196C107.091 250.146 111.421 251.421 113.586 252.312Z" fill="#3F3D56"/>
<path d="M164.476 622.397L169.33 639.06C170.133 642.229 171.265 645.311 172.708 648.26C175.076 652.719 178.804 656.368 183.387 658.716C185.475 659.775 187.737 660.591 189.552 662.017C191.367 663.442 192.668 665.833 191.969 668.009C191.27 670.184 188.795 671.413 186.484 672.041C181.008 673.487 175.184 673.08 169.98 670.888C167.505 669.828 165.194 668.365 162.641 667.493C160.088 666.621 157.078 666.396 154.768 667.765C154.214 668.164 153.603 668.48 152.952 668.703C151.905 668.841 150.841 668.604 149.962 668.037C146.991 666.564 144.138 664.878 141.429 662.992C140.324 662.308 139.367 661.422 138.613 660.385C136.769 657.572 138.07 653.821 139.244 650.717C142.365 642.401 144.397 633.741 145.293 624.938C145.275 624.548 145.345 624.16 145.498 623.799C145.65 623.438 145.882 623.113 146.176 622.847C146.606 622.629 147.089 622.525 147.574 622.547L168.311 621.609" fill="#575A89"/>
<path d="M110.79 639.079C111.906 641.133 113.644 642.83 114.886 644.809C118.527 650.613 117.663 658.303 121.401 664.042C124.556 668.9 130.837 672.154 131.585 677.846C131.738 678.764 131.668 679.704 131.38 680.591C131.092 681.478 130.593 682.288 129.924 682.957C128.614 684.129 126.76 684.476 125.012 684.776C121.291 685.588 117.476 685.929 113.663 685.789C109.867 685.498 106.004 684.148 103.499 681.372C101.819 679.496 100.217 676.842 97.6739 677.152C96.8002 677.255 95.8488 677.724 95.111 677.264C94.8362 677.02 94.6258 676.715 94.4975 676.376C94.3692 676.036 94.3266 675.672 94.3731 675.314L93.2276 632.674C96.8973 632.29 103.256 630.883 106.819 632.102C109.887 633.143 109.392 636.482 110.79 639.079Z" fill="#575A89"/>
<path d="M147.021 441.973C155.971 452.729 158.622 466.973 161.495 480.496C165.197 497.938 169.747 515.186 175.145 532.241C176.582 536.78 178.058 541.337 178.611 546.054C179.582 555.038 177.038 563.975 175.058 572.799C170.932 591.263 169.359 610.149 167.806 628.98C164.701 626.424 160.811 624.926 156.737 624.717C152.663 624.509 148.631 625.601 145.263 627.826C144.215 605.123 143.739 582.186 146.923 559.661C147.525 555.432 148.253 551.033 146.923 546.982C146.03 544.375 144.341 542.115 142.933 539.734C140.021 534.82 138.39 529.325 135.74 524.289C131.478 516.205 124.634 509.285 122.42 500.451C120.527 505.928 120.537 511.479 120.197 517.237C119.211 533.581 116.279 549.76 111.46 565.456C110.605 568.213 109.693 571.083 110.265 573.896C112.984 587.193 109.062 600.416 110.265 613.919C110.615 618.017 111.091 622.106 111.557 626.194L111.712 627.507L112.76 636.585C108.877 634.025 104.771 634.39 100.082 634.625C98.4991 634.626 96.9289 634.892 95.441 635.413C94.4981 635.78 93.6416 636.327 92.9227 637.022C92.2038 637.716 91.6372 638.544 91.2568 639.454C90.6937 624.732 85.2086 611.509 82.7039 596.983C79.2575 576.991 82.17 556.566 83.3447 536.33C83.7256 531.972 83.6345 527.587 83.0728 523.248C82.4879 520.069 81.667 516.935 80.6167 513.87C77.1023 502.824 73.3646 491.73 72.1997 480.224C71.0347 468.717 70.1998 452.466 76.6751 442.714C78.675 439.713 83.5971 441.063 86.7037 439.113C89.1515 437.631 91.844 436.565 94.6644 435.962C111.644 432.154 129.662 440.529 147.021 441.973Z" fill="#3C354C"/>
<path d="M116.372 308.493C116.75 312.591 117.644 317.42 121.507 319.146C123.701 320.083 126.245 319.755 128.614 320.13C133.099 320.834 136.788 324.163 138.866 328.064C140.943 331.965 141.662 336.4 142.147 340.761C142.749 346.228 142.943 352.155 139.836 356.759C137.332 360.51 133.041 362.751 128.536 363.905C124.062 365.037 119.384 365.205 114.836 364.394C110.287 363.584 105.979 361.816 102.217 359.216C98.6222 356.507 95.3644 353.404 92.5091 349.97C86.0629 342.721 79.5682 334.778 78.2478 325.307C78.0925 324.228 78.1022 322.925 79.0148 322.287C79.6455 321.944 80.374 321.806 81.0923 321.893L87.2764 321.996C88.8394 321.996 90.6063 321.996 91.6742 320.862C92.7421 319.727 92.645 318.283 92.645 316.895L92.2276 299.556C92.136 298.942 92.2849 298.316 92.645 297.802C93.0356 297.458 93.5348 297.249 94.0624 297.212C97.47 296.658 101.033 297.212 104.363 296.321C107.537 295.477 112.518 291.96 114.848 295.571C116.789 298.675 116.051 304.995 116.372 308.493Z" fill="#FFC1C7"/>
<path opacity="0.1" d="M116.372 308.493C116.75 312.591 117.644 317.42 121.507 319.146C123.701 320.083 126.245 319.755 128.614 320.13C133.099 320.834 136.788 324.163 138.866 328.064C140.943 331.965 141.662 336.4 142.147 340.761C142.749 346.228 142.943 352.155 139.836 356.759C137.332 360.51 133.041 362.751 128.536 363.905C124.062 365.037 119.384 365.205 114.836 364.394C110.287 363.584 105.979 361.816 102.217 359.216C98.6222 356.507 95.3644 353.404 92.5091 349.97C86.0629 342.721 79.5682 334.778 78.2478 325.307C78.0925 324.228 78.1022 322.925 79.0148 322.287C79.6455 321.944 80.374 321.806 81.0923 321.893L87.2764 321.996C88.8394 321.996 90.6063 321.996 91.6742 320.862C92.7421 319.727 92.645 318.283 92.645 316.895L92.2276 299.556C92.136 298.942 92.2849 298.316 92.645 297.802C93.0356 297.458 93.5348 297.249 94.0624 297.212C97.47 296.658 101.033 297.212 104.363 296.321C107.537 295.477 112.518 291.96 114.848 295.571C116.789 298.675 116.051 304.995 116.372 308.493Z" fill="black"/>
<path d="M100.81 307.358C113.855 307.358 124.43 297.143 124.43 284.543C124.43 271.942 113.855 261.727 100.81 261.727C87.7647 261.727 77.1896 271.942 77.1896 284.543C77.1896 297.143 87.7647 307.358 100.81 307.358Z" fill="#FFC1C7"/>
<path d="M126.206 348.01C130.022 348.075 134.332 347.072 136.177 343.809C137.439 341.596 137.235 338.904 136.992 336.391L135.623 322.325C139.332 321.95 143.322 321.631 146.555 323.403C150.855 325.757 152.379 330.971 152.884 335.716C153.787 344.624 152.321 353.618 152.826 362.554C153.253 370.056 155.049 377.802 152.758 384.995C151.787 387.996 150.176 390.762 149.127 393.735C147.817 397.486 147.477 401.518 147.186 405.485C146.826 409.742 146.487 414.15 147.962 418.182C149.195 421.558 151.603 424.399 153.321 427.559C156.137 432.792 156.738 439.844 152.506 444.092C148.622 447.974 142.234 448.134 136.808 446.905C131.381 445.677 126.129 443.332 120.595 443.107C110.77 442.704 102.013 448.865 92.4412 450.863C91.158 451.194 89.8133 451.239 88.5094 450.994C87.3558 450.633 86.2823 450.067 85.3445 449.325L80.0827 445.667C79.0311 445.06 78.156 444.205 77.5391 443.182C77.0984 442.045 76.9844 440.814 77.2091 439.619C78.976 423.79 88.2473 408.598 85.5678 392.891C84.7347 388.773 83.4593 384.75 81.7622 380.887C75.0927 364.402 67.0932 347.278 69.6852 329.752C70.2483 325.869 71.4327 321.903 74.1995 319.033C76.9664 316.164 81.6457 314.738 85.228 316.576C88.8103 318.414 90.0821 322.503 91.6645 326.057C94.7141 332.966 99.5556 338.999 105.722 343.574C108.324 345.506 111.479 347.972 114.886 348.057C118.44 348.179 122.323 347.935 126.206 348.01Z" fill="#0080FF"/>
<path d="M160.418 383.457C166.146 389.599 167.272 398.461 167.903 406.694C169.639 429.349 169.701 452.094 168.087 474.757C168.005 478.118 167.42 481.45 166.349 484.65C165.126 487.791 162.835 490.698 159.612 491.955C157.544 492.761 154.661 492.546 153.729 490.586C152.875 488.795 154.146 486.835 155.107 485.053C157.315 481.05 158.054 476.442 157.204 471.981C156.03 472.806 155.612 474.297 155.263 475.666L153.389 483.281C150.855 482.924 149.904 479.933 149.506 477.495C148.768 473.069 148.059 468.352 149.894 464.235C150.865 462.041 152.515 460.175 153.496 457.98C155.971 452.466 156.942 446.164 155.35 440.35C149.983 420.721 147.641 400.435 148.399 380.147C152.076 382.158 156.196 383.293 160.418 383.457V383.457Z" fill="#FFC1C7"/>
<path d="M165.825 389.637C158.775 389.705 151.76 390.599 144.933 392.3C144.03 388.005 144.467 383.56 144.933 379.171L147.943 349.163C148.166 346.941 147.739 326.526 152.195 330.136C153.836 331.468 155.904 343.396 156.418 345.318C157.195 348.207 157.806 351.132 158.36 354.077C159.476 360.107 160.233 366.193 161.272 372.232C161.573 374.023 164.214 389.637 165.825 389.637Z" fill="#0080FF"/>
<path d="M109.819 255.538C109.848 254.824 109.68 254.115 109.333 253.484C109.026 253.113 108.642 252.806 108.206 252.585C107.77 252.364 107.291 252.233 106.8 252.199C103.382 251.684 99.6447 253.015 96.5672 251.506C94.8974 250.69 93.713 249.161 92.0917 248.27C88.2084 246.179 83.3544 248.27 80.005 250.999C74.5954 255.335 70.653 261.135 68.6853 267.654C67.1708 272.699 66.5592 278.597 62.2391 281.776C60.4431 283.089 58.1325 283.821 56.8219 285.584C55.94 287.003 55.4487 288.617 55.3948 290.272C54.9482 294.098 54.5696 298.037 55.6084 301.75C56.3948 304.564 57.9287 307.039 58.8898 309.759C60.1764 313.619 60.2943 317.753 59.2296 321.676C58.165 325.598 55.9621 329.145 52.8804 331.899C54.4561 332.852 56.3563 333.168 58.1714 332.781C58.1306 333.587 57.8656 334.368 57.4044 335.041C62.9284 334.872 67.7339 329.667 73.1413 330.802C77.277 331.665 79.5779 335.781 82.6554 338.585C86.626 342.186 92.7907 343.696 97.771 341.558C102.751 339.42 105.78 333.343 103.664 328.486C101.256 322.962 93.8295 320.777 91.2568 315.357C89.2666 311.137 90.7423 306.195 90.286 301.572C89.9268 297.606 88.1502 293.901 87.0435 290.057C85.9367 286.212 85.5775 281.823 87.8298 278.485C90.218 274.931 94.7906 273.552 98.9554 272.239C108.363 269.285 110.168 264.709 109.819 255.538Z" fill="#3F3D56"/>
<path d="M104.013 337.563C104.683 334.375 105.353 330.999 104.159 327.942C101.955 322.315 94.7226 320.505 89.7229 316.858C86.8264 314.731 84.6009 311.867 83.2961 308.587C82.3932 306.28 82.267 303.11 84.4999 301.929C85.3688 301.535 86.33 301.37 87.2862 301.45C95.0527 301.628 102.227 305.717 108.198 310.565C111.673 313.378 114.993 316.604 116.702 320.655C117.787 323.575 118.44 326.628 118.644 329.724L119.896 339.936C120.717 345.798 121.203 351.699 121.352 357.612C121.356 360.995 121.135 364.375 120.692 367.731C120.381 370.113 119.915 372.579 118.469 374.529C115.78 378.168 110.586 378.984 105.955 379.106C104.204 379.202 102.447 379.095 100.722 378.787C93.0237 377.174 87.1794 366.755 93.014 360.322C95.4896 357.594 99.1981 357.509 100.615 353.758C102.441 348.779 102.907 342.749 104.013 337.563Z" fill="#FFC1C7"/>
<path d="M97.7516 339.354L103.877 348.948C104.242 349.442 104.496 350.004 104.625 350.598C104.79 351.845 103.829 352.952 103.062 353.974C97.8195 360.876 99.1787 370.385 100.732 378.806C92.3706 376.254 84.9242 371.476 79.2485 365.02C73.5727 358.564 69.8979 350.691 68.6465 342.308C67.8795 337.291 66.6466 329.03 71.258 325.766C82.3156 317.889 92.548 331.13 97.7516 339.354Z" fill="#0080FF"/>
<path d="M128.614 320.13C126.245 319.755 123.702 320.13 121.507 319.146C117.624 317.42 116.75 312.581 116.372 308.493C116.372 308.108 116.323 307.696 116.304 307.255C117.689 305.884 119.193 304.629 120.799 303.504C122.247 302.684 123.788 302.027 125.391 301.544L129.682 300.091C130.092 301.188 130.416 302.313 130.653 303.457C131.138 306.214 130.73 309.084 131.439 311.794C132.227 314.215 133.453 316.482 135.06 318.489L141.38 327.417C140.235 327.154 139.099 326.863 137.973 326.545C135.769 323.309 132.497 320.74 128.614 320.13Z" fill="#3F3D56"/>
<path d="M985.379 359.629C984.253 354.349 982.146 349.313 980.875 344.081C980.352 341.348 979.649 338.651 978.768 336.007C978.318 334.857 977.756 333.752 977.088 332.706L977.69 332.162C975.69 328.898 975.613 324.81 974.671 321.096C973.856 317.899 972.234 314.973 971.254 311.822C969.895 307.452 969.71 302.519 966.905 298.909C965.798 297.484 964.351 296.368 963.118 295.045C961.701 293.536 960.585 291.763 959.148 290.282C954.973 285.987 948.682 284.655 942.731 284.036C936.78 283.417 930.625 283.427 925.14 281.035C922.839 280.032 920.412 278.597 918.005 278.766C916.652 277.507 915.408 276.143 914.286 274.687C912.456 272.544 910.794 270.271 909.316 267.888C910.473 265.997 911.367 263.966 911.976 261.849L912.374 261.577C913.937 260.433 915.286 258.942 916.82 257.826C918.17 256.888 919.907 255.904 920.053 254.234C920.199 252.565 918.636 251.29 917.665 249.911C914.16 244.969 918.034 237.233 914.442 232.347C912.646 229.9 909.51 228.971 906.675 227.78C902.792 226.13 899.326 223.757 895.472 222.154C891.618 220.55 887.162 219.678 883.278 221.216C876.017 224.123 873.405 234.11 866.027 236.717C865.227 236.874 864.505 237.287 863.979 237.889C863.076 239.315 861.882 247.708 862.095 249.442C862.377 251.74 862.95 252.875 864.59 253.681C864.59 254.169 864.59 254.666 864.59 255.163C864.59 267.1 873.153 277.012 884.443 279.057C885.526 280.158 886.447 281.398 887.181 282.742C887.753 284.166 888.081 285.671 888.152 287.196C887.746 287.009 887.3 286.919 886.851 286.934C886.133 287.033 885.46 287.331 884.913 287.792C884.367 288.253 883.971 288.857 883.774 289.531C883.371 290.909 883.21 292.341 883.298 293.77C883.36 294.211 883.314 294.66 883.166 295.081C883.018 295.503 882.771 295.885 882.444 296.199C882.087 296.406 881.684 296.529 881.269 296.555C879.77 296.827 878.25 296.977 876.725 297.005C874.201 297.005 871.493 296.396 869.27 297.587C867.046 298.778 866.037 301.338 864.969 303.654C863.421 306.968 861.384 310.048 858.921 312.797C856.202 315.835 852.824 318.714 852.057 322.737C852.047 322.831 852.047 322.925 852.057 323.019C849.931 323.956 847.756 326.207 846.232 327.342C843.308 329.528 840.499 331.853 837.815 334.309C835.087 336.851 831.408 340.001 829.718 343.396C828.857 344.848 827.71 346.122 826.34 347.147C823.573 348.882 820.001 347.963 816.884 346.988C808.244 344.296 799.555 341.577 791.497 337.46C791.101 337.195 790.618 337.079 790.138 337.132C789.875 337.212 789.639 337.361 789.459 337.563C789.393 337.466 789.322 337.372 789.245 337.282C787.07 335.013 783.653 334.862 782.449 331.393C782.116 330.292 781.879 329.166 781.741 328.026C780.98 324.709 779.748 321.509 778.081 318.517C777.837 317.9 777.42 317.361 776.877 316.961C776.366 316.722 775.779 316.681 775.237 316.846C774.696 317.012 774.24 317.372 773.964 317.852C773.407 318.832 773.189 319.959 773.343 321.068C773.421 322.287 773.605 323.703 772.732 324.575C772.38 324.894 771.954 325.126 771.489 325.25C768.683 326.132 765.596 325.344 762.975 324.022C760.354 322.7 757.995 320.862 755.402 319.465C754.033 318.74 752.619 318.095 751.17 317.533C749.675 316.933 747.597 316.539 746.762 317.917C746.092 319.024 746.762 320.44 747.539 321.49C748.84 323.304 750.355 324.965 752.053 326.441C757.101 330.802 763.46 333.231 769.382 336.269C774.545 338.922 779.423 342.063 783.944 345.647C783.77 346.192 783.662 346.755 783.624 347.325C783.626 348.433 783.868 349.527 784.332 350.54C784.797 351.552 785.475 352.46 786.323 353.205C788 354.645 789.888 355.84 791.925 356.75C802.202 361.907 812.558 366.931 822.991 371.819C823.654 372.191 824.392 372.422 825.156 372.495C827.272 372.541 828.622 370.328 830.32 369.053C832.019 367.778 834.204 367.421 836.252 366.755C839.893 365.546 843.048 363.248 846.164 360.979L856.096 353.721C861.095 350.073 866.221 346.219 870.415 341.717C870.945 342.792 871.698 343.75 872.629 344.531C871.813 346.284 873.512 348.104 873.92 349.998C874.064 351.243 874.1 352.498 874.027 353.749C874.2 355.575 874.525 357.384 874.997 359.16C875.475 362.059 875.696 364.992 875.658 367.928C875.658 371.2 875.764 374.492 875.813 377.755C875.881 381.994 875.949 386.279 875.027 390.415C873.774 396.042 870.706 401.387 870.949 407.163C871.125 408.241 871.015 409.345 870.629 410.37C868.095 415.059 866.095 420.226 863.367 424.84C862.561 425.961 861.909 427.177 861.425 428.46C861.086 429.799 861.223 431.209 861.814 432.464C860.732 434.335 860.124 436.427 860.037 438.569C859.853 443.867 862.056 448.884 863.115 454.107C864.085 458.899 864.085 463.813 864.231 468.699C864.979 491.561 869.609 514.161 870.57 537.014C871.024 547.551 870.7 558.105 869.6 568.598C868.891 575.368 867.843 582.12 867.454 588.928C866.338 608.246 870.512 627.376 874.658 646.319C875.912 644.896 877.67 643.976 879.589 643.74C879.085 645.615 878.415 648.053 877.716 649.854C876.703 649.99 875.731 650.328 874.861 650.848C872.444 652.339 871.619 655.396 870.211 657.872C867.134 663.264 861.086 666.03 856.125 669.734C853.746 671.507 851.348 674.217 852.096 677.096C860.688 679.506 870.046 681.644 878.308 678.324C881.667 676.983 884.812 674.761 888.414 674.648C891.152 674.564 893.948 675.717 896.569 674.929C897.219 674.761 897.788 674.38 898.181 673.851C898.489 673.272 898.636 672.626 898.608 671.976C898.831 667.567 898.812 663.15 898.549 658.744C898.326 654.993 898.724 652.18 895.569 651.654C894.784 649.77 894.202 647.812 893.831 645.812C893.831 645.446 893.744 645.062 893.695 644.678C894.564 644.684 895.432 644.615 896.287 644.471C896.816 644.385 897.338 644.266 897.85 644.115C897.685 643.468 897.54 642.811 897.404 642.164C897.132 640.861 896.918 639.557 896.744 638.254C896.569 636.95 896.443 635.628 896.346 634.315C896.346 633.65 896.268 632.993 896.239 632.327C896.181 631.005 896.161 629.683 896.171 628.351C896.181 627.02 896.171 625.697 896.268 624.366C896.365 623.034 896.404 621.703 896.501 620.371C896.734 617.042 897.074 613.713 897.414 610.412C898.404 600.716 899.4 591.026 900.404 581.342C900.695 578.435 900.996 575.518 901.035 572.602C901.072 570.857 900.988 569.112 900.782 567.378C900.268 563.177 898.899 558.939 898.841 554.794C898.823 554.102 898.849 553.41 898.918 552.721C898.986 552.026 899.106 551.337 899.278 550.658C899.365 550.283 899.481 549.908 899.598 549.542C899.841 548.802 900.112 548.08 900.355 547.339C900.481 546.973 900.598 546.598 900.705 546.223C901.101 544.639 901.339 543.021 901.413 541.393C901.413 540.849 901.481 540.306 901.51 539.762L902.705 516.899C902.899 513.233 903.219 509.275 904.704 506.003C905.343 504.558 906.277 503.253 907.452 502.167C907.151 501.389 907.452 500.076 908.287 499.87C909.264 511.54 909.144 523.273 907.927 534.923C907.5 538.58 906.869 542.209 906.695 545.885C906.326 553.987 908.18 562.005 908.83 570.089C909.481 578.172 908.83 586.499 908.83 594.705C908.762 608.818 910.374 622.884 911.976 636.904L912.947 637.523C912.947 638.76 913.092 640.111 913.073 641.274C913.041 641.678 913.083 642.084 913.199 642.474H912.791C911.852 642.551 910.946 642.847 910.151 643.337C909.356 643.827 908.697 644.496 908.228 645.287C907.267 646.893 906.569 648.633 906.161 650.445C905.685 651.782 905.487 653.197 905.578 654.608C905.947 657.281 908.296 659.297 908.918 661.923C910.054 666.677 905.229 671.807 907.423 676.177C908.821 678.99 912.345 679.768 915.422 680.256C920.121 680.997 925.47 681.588 929.169 678.577C930.174 677.735 930.977 676.691 931.522 675.519C932.067 674.346 932.341 673.073 932.324 671.788C932.324 668.356 930.217 665.299 929.295 661.998C927.994 657.365 929.936 651.139 927.888 646.863C927.721 646.412 927.463 645.998 927.13 645.643H927.829C927.664 644.077 927.499 642.502 927.324 640.955L928.955 640.148C930.635 639.332 932.577 638.713 934.324 639.351C933.674 631.296 933.489 622.396 935.411 614.557C936.906 608.368 939.586 602.497 940.828 596.252C941.799 591.104 941.867 585.815 941.887 580.573C941.887 570.839 941.887 561.039 940.197 551.502C939.518 547.676 938.547 543.757 939.285 539.93C939.77 537.408 940.955 535.082 941.654 532.607C943.285 526.821 942.091 520.603 943.061 514.667C945.372 500.489 946.595 485.691 948.352 471.446C949.228 463.374 949.526 455.252 949.246 447.14V447.046L952.731 440.482C955.226 435.793 957.76 431.029 959.274 425.993C959.797 426.701 960.218 427.474 960.526 428.291L975.846 403.703C976.84 402.249 977.627 400.671 978.185 399.014C978.535 397.823 978.651 396.576 978.914 395.366C979.603 392.225 981.253 389.393 982.574 386.467C986.317 378.006 987.296 368.642 985.379 359.629V359.629ZM962.458 371.969C961.746 376.01 960.773 380.003 959.546 383.926C957.527 390.659 955.187 397.279 952.847 403.909L950.838 409.536C950.144 411.801 949.103 413.954 947.75 415.922C947.441 416.414 947.165 416.924 946.925 417.45C944.848 409.948 947.1 401.509 946.624 393.51C946.265 387.461 944.323 381.319 945.78 375.458C946.75 371.51 949.197 368.115 950.915 364.42C952.517 360.988 953.517 357.247 955.323 353.936C955.323 354.002 955.323 354.058 955.391 354.115C956.997 358.191 958.921 362.144 961.148 365.94C961.773 366.797 962.248 367.747 962.555 368.753C962.756 369.825 962.732 370.925 962.487 371.988L962.458 371.969Z" fill="url(#paint1_linear)"/>
<path d="M782.197 331.365C781.848 330.263 781.601 329.133 781.459 327.989C780.828 324.622 779.217 321.518 777.634 318.452C777.382 317.824 776.947 317.28 776.382 316.886C775.853 316.659 775.258 316.624 774.705 316.787C774.151 316.951 773.678 317.302 773.372 317.777C772.798 318.755 772.569 319.887 772.722 321.002C772.809 322.24 773.003 323.656 772.101 324.528C771.725 324.85 771.276 325.082 770.79 325.204C767.878 326.094 764.645 325.297 761.897 323.975C759.15 322.653 756.703 320.796 753.995 319.399C752.562 318.674 751.087 318.029 749.578 317.467C748.015 316.858 745.85 316.464 744.976 317.852C744.277 318.958 744.976 320.374 745.782 321.434C747.144 323.263 748.728 324.929 750.5 326.395C755.762 330.774 762.412 333.212 768.596 336.26C775.524 339.675 781.982 343.916 787.818 348.882C788.384 348.234 788.723 347.43 788.789 346.584C789.255 344.193 791.303 339.354 789.235 337.282C786.973 335.003 783.449 334.853 782.197 331.365Z" fill="#A0616A"/>
<path d="M879.56 653.38C884.743 657.287 891.31 659.066 897.841 658.331C899.2 658.172 900.753 657.703 901.2 656.456C901.363 655.699 901.275 654.911 900.947 654.205C899.921 651.845 899.131 649.396 898.588 646.891C898.248 644.612 898.336 641.902 896.414 640.533C893.637 638.554 886.375 638.657 884.57 641.724C884.143 642.38 881.424 654.89 879.56 653.38Z" fill="#3C354C"/>
<path d="M918.675 642.314C918.608 642.563 918.596 642.822 918.642 643.074C918.688 643.327 918.789 643.567 918.939 643.779C919.089 643.99 919.284 644.169 919.512 644.301C919.739 644.433 919.993 644.517 920.257 644.546C924.715 645.88 929.339 646.627 934.004 646.769L933.033 637.748C933.052 637.546 933.025 637.343 932.955 637.152C932.884 636.961 932.772 636.788 932.625 636.643C932.478 636.499 932.3 636.387 932.104 636.315C931.908 636.244 931.698 636.214 931.489 636.228C928.81 635.797 923.179 634.043 920.607 634.944C917.714 635.956 918.733 639.623 918.675 642.314Z" fill="#3C354C"/>
<path d="M891.56 282.489C892.313 284.382 892.685 286.397 892.657 288.425C892.899 295.692 891.608 303.541 886.366 308.755C892.249 307.058 898.86 308.08 904.413 305.548C906.986 304.376 909.151 302.51 911.558 301.056C915.849 298.468 920.849 297.212 925.315 294.905C929.781 292.598 933.916 288.706 934.169 283.83C932.227 281.861 929.111 281.579 926.567 280.388C923.83 279.094 921.801 276.731 919.869 274.452C917.589 271.94 915.591 269.202 913.908 266.285C912.217 263.345 911.537 259.963 911.966 256.626C907.005 257.488 903.404 261.671 898.715 263.462C896.889 264.156 894.919 264.475 893.142 265.272C890.608 266.397 885.473 270.223 885.375 273.224C885.385 276.497 890.239 279.601 891.56 282.489Z" fill="#A0616A"/>
<path opacity="0.1" d="M891.56 282.489C892.313 284.382 892.685 286.397 892.657 288.425C892.899 295.692 891.608 303.541 886.366 308.755C892.249 307.058 898.86 308.08 904.413 305.548C906.986 304.376 909.151 302.51 911.558 301.056C915.849 298.468 920.849 297.212 925.315 294.905C929.781 292.598 933.916 288.706 934.169 283.83C932.227 281.861 929.111 281.579 926.567 280.388C923.83 279.094 921.801 276.731 919.869 274.452C917.589 271.94 915.591 269.202 913.908 266.285C912.217 263.345 911.537 259.963 911.966 256.626C907.005 257.488 903.404 261.671 898.715 263.462C896.889 264.156 894.919 264.475 893.142 265.272C890.608 266.397 885.473 270.223 885.375 273.224C885.385 276.497 890.239 279.601 891.56 282.489Z" fill="black"/>
<path d="M955.43 471.878C953.595 486.169 952.323 501.023 949.906 515.249C948.935 521.203 950.139 527.44 948.44 533.254C947.712 535.739 946.498 538.074 945.964 540.596C945.197 544.441 946.207 548.37 946.935 552.215C948.721 561.827 948.721 571.664 948.692 581.435C948.692 586.696 948.692 592.004 947.595 597.171C946.294 603.444 943.498 609.362 941.935 615.532C939.926 623.409 940.12 632.337 940.799 640.42C938.974 639.782 936.916 640.42 935.188 641.217C933.46 642.014 931.713 643.093 929.781 643.215C927.169 643.449 924.713 642.117 922.461 640.823C920.733 639.839 919.228 638.948 917.509 637.935C915.83 623.869 914.15 609.746 914.218 595.577C914.218 587.343 914.888 579.091 914.218 570.876C913.549 562.662 911.597 554.709 911.995 546.588C912.18 542.894 912.83 539.255 913.267 535.589C914.704 523.717 914.51 512.332 913.646 500.413C912.801 500.62 912.461 501.933 912.772 502.711C911.539 503.79 910.548 505.102 909.859 506.565C908.306 509.847 907.976 513.823 907.772 517.499L906.52 540.446C906.486 542.629 906.206 544.802 905.685 546.926C905.248 548.436 904.588 549.861 904.19 551.38C902.763 556.876 905.054 562.54 905.782 568.157C906.374 572.846 905.869 577.534 905.374 582.167L902.258 611.35C901.122 621.965 900.015 632.806 902.258 643.233C902.404 643.88 902.549 644.537 902.724 645.193C902.188 645.343 901.643 645.462 901.093 645.55C899.161 645.812 897.2 645.812 895.268 645.55C893.462 645.371 891.637 645.071 889.851 644.865C885.56 644.396 881.279 644.218 878.434 647.35C874.104 628.389 869.755 609.137 870.91 589.753C871.318 582.926 872.405 576.146 873.153 569.348C874.317 558.825 874.668 548.234 874.201 537.661C873.231 514.724 868.376 492.039 867.571 469.093C867.406 464.197 867.425 459.255 866.415 454.454C865.309 449.25 863.008 444.139 863.192 438.859C863.377 433.58 867.367 427.719 872.9 428.01C888.171 428.825 902.122 420.686 917.354 419.298C924.266 418.66 931.295 417.713 938.139 418.904C944.984 420.095 951.799 423.837 954.488 430.026C955.944 433.392 956.061 437.125 956.168 440.763C956.478 451.153 956.76 461.572 955.43 471.878Z" fill="#0080FF"/>
<path d="M878.716 651.898C876.192 653.399 875.328 656.465 873.862 658.95C870.648 664.361 864.338 667.137 859.154 670.85C856.668 672.641 854.164 675.351 854.95 678.249C863.92 680.659 873.687 682.807 882.337 679.478C885.841 678.127 889.132 675.895 892.89 675.783C895.753 675.698 898.714 676.861 901.404 676.064C902.082 675.911 902.681 675.529 903.093 674.986C903.408 674.409 903.562 673.762 903.539 673.11C903.774 668.683 903.751 664.247 903.471 659.822C903.2 655.499 903.802 652.442 898.695 652.63C892.831 652.874 883.803 648.869 878.716 651.898Z" fill="#CBCEDA"/>
<path d="M921.703 644.209C920.643 643.799 919.523 643.556 918.383 643.487C917.416 643.56 916.479 643.853 915.651 644.342C914.823 644.831 914.126 645.502 913.616 646.3C912.613 647.902 911.886 649.65 911.461 651.476C910.966 652.812 910.761 654.233 910.859 655.649C911.238 658.331 913.694 660.338 914.345 662.982C915.519 667.756 910.461 672.904 912.772 677.293C914.238 680.106 917.917 680.894 921.131 681.381C926.043 682.131 931.625 682.722 935.489 679.693C936.527 678.868 937.362 677.829 937.933 676.653C938.504 675.477 938.797 674.193 938.79 672.895C938.732 669.444 936.586 666.377 935.615 663.058C934.266 658.369 936.295 652.161 934.149 647.875C932.314 644.209 925.616 645.418 921.703 644.209Z" fill="#CBCEDA"/>
<path d="M893.2 279.188C907.135 279.188 918.432 268.276 918.432 254.816C918.432 241.355 907.135 230.444 893.2 230.444C879.265 230.444 867.969 241.355 867.969 254.816C867.969 268.276 879.265 279.188 893.2 279.188Z" fill="#A0616A"/>
<path d="M906.578 294.755C903.857 293.637 900.831 293.416 897.967 294.126L895.666 290.254C894.695 288.547 893.249 286.615 891.22 286.69C890.481 286.782 889.785 287.078 889.215 287.542C888.645 288.006 888.226 288.618 888.006 289.306C887.585 290.683 887.414 292.121 887.502 293.554C887.568 294.001 887.523 294.456 887.369 294.882C887.215 295.308 886.958 295.692 886.618 296.002C886.241 296.202 885.824 296.323 885.395 296.358C883.827 296.625 882.24 296.776 880.648 296.808C878.007 296.808 875.182 296.19 872.881 297.39C870.58 298.59 869.512 301.141 868.396 303.485C866.768 306.824 864.642 309.914 862.086 312.656C859.241 315.704 855.717 318.592 854.911 322.625C854.572 324.341 856.183 325.616 857.465 326.854C862.561 331.74 869.668 334.741 873.444 340.648C874.328 342.027 875.046 343.584 876.405 344.531C875.561 346.303 877.376 348.122 877.755 350.026C877.904 351.271 877.939 352.526 877.861 353.777C878.03 355.61 878.355 357.426 878.832 359.207C879.329 362.113 879.56 365.057 879.522 368.003L879.687 377.868C879.755 382.125 879.822 386.42 878.861 390.574C877.551 396.201 874.347 401.593 874.599 407.379C874.787 408.463 874.673 409.577 874.269 410.605C871.619 415.294 869.532 420.489 866.687 425.121C865.875 426.245 865.222 427.469 864.746 428.76C863.988 431.432 865.542 434.33 867.833 435.999C870.124 437.668 873.017 438.353 875.832 438.869C901.986 443.707 929.14 437.884 953.857 428.319C954.507 428.122 955.111 427.804 955.634 427.381C957.439 425.684 956.022 422.824 954.993 420.611C951.109 412.368 954.206 402.793 953.653 393.791C953.284 387.724 951.245 381.6 952.779 375.673C953.75 371.716 956.342 368.303 958.138 364.608C960.08 360.604 961.167 356.168 963.711 352.511C965.615 349.998 967.843 347.729 970.341 345.759L986.117 332.18C984.03 328.908 983.943 324.8 982.962 321.078C982.108 317.87 980.409 314.926 979.389 311.775C977.972 307.386 977.778 302.397 974.846 298.806C973.691 297.371 972.186 296.255 970.895 294.933C969.419 293.414 968.254 291.641 966.749 290.15C962.39 285.837 955.818 284.468 949.615 283.886C943.411 283.305 936.994 283.277 931.247 280.876C928.431 279.704 925.422 277.931 922.509 278.813C920.199 279.507 918.713 281.692 917.772 283.858C916.83 286.024 916.17 288.359 914.626 290.169C912.723 292.326 909.355 293.751 906.578 294.755Z" fill="#3C354C"/>
<path d="M831.505 343.405C830.592 344.867 829.391 346.141 827.971 347.156C825.059 348.891 821.36 347.972 818.108 346.997C809.089 344.287 800.012 341.567 791.595 337.432C791.178 337.162 790.675 337.046 790.177 337.104C789.788 337.224 789.448 337.461 789.206 337.779C787.883 339.196 786.666 340.704 785.566 342.289C784.404 343.76 783.673 345.506 783.449 347.344C783.456 348.463 783.71 349.568 784.194 350.585C784.678 351.602 785.38 352.508 786.255 353.242C788.011 354.689 789.973 355.886 792.08 356.797C802.817 361.973 813.626 367.015 824.505 371.922C825.202 372.297 825.973 372.527 826.767 372.598C828.981 372.645 830.388 370.422 832.155 369.147C833.922 367.871 836.242 367.515 838.349 366.84C842.155 365.63 845.465 363.323 848.708 361.045L859.076 353.768C868.163 347.391 877.706 340.442 881.677 330.324L869.056 326.31C865.27 325.1 861.29 323.262 857.358 322.559C854.445 322.015 850.941 325.729 848.756 327.314C845.685 329.513 842.733 331.864 839.912 334.356C837.116 336.832 833.272 340.001 831.505 343.405Z" fill="#3C354C"/>
<path d="M950.964 423.461C947.401 424.831 943.362 422.768 939.586 423.377C937.815 423.759 936.127 424.435 934.596 425.374L923.567 431.329C922.888 431.686 922.15 432.558 922.742 433.027C922.913 433.136 923.11 433.2 923.315 433.214C926.994 433.674 930.431 431.507 934.091 430.907C935.699 430.696 937.325 430.636 938.945 430.729C939.213 430.714 939.48 430.752 939.732 430.842C940 430.99 940.219 431.209 940.363 431.473C940.508 431.737 940.571 432.035 940.547 432.333C940.547 432.933 940.363 433.514 940.343 434.114C940.454 435.497 941.014 436.81 941.945 437.865C945.455 442.732 949.35 447.328 953.595 451.613C954.671 450.298 955.602 448.877 956.371 447.374L960.002 440.81C963.769 434.039 967.623 427.016 968.225 419.354C965.507 418.519 960.458 415.753 957.653 417.207C954.847 418.66 954.197 422.458 950.964 423.461Z" fill="#A0616A"/>
<path d="M890.006 250.924C897.113 251.656 903.598 254.9 909.957 258.089C908.869 259.739 910.248 262.112 912.18 262.674C914.112 263.237 916.228 262.44 917.869 261.286C919.509 260.133 920.859 258.642 922.509 257.535C923.927 256.598 925.732 255.604 925.888 253.934C926.043 252.265 924.412 250.98 923.393 249.593C919.733 244.632 923.781 236.867 920.034 231.963C918.15 229.506 914.879 228.577 911.976 227.377C907.957 225.727 904.297 223.345 900.268 221.704C896.239 220.063 891.598 219.209 887.54 220.766C879.949 223.682 877.23 233.707 869.522 236.323C868.693 236.481 867.94 236.896 867.377 237.505C866.406 238.93 865.192 247.361 865.435 249.096C865.804 251.993 866.629 253.062 869.58 253.925C875.891 255.744 883.249 250.221 890.006 250.924Z" fill="#3F3D56"/>
<path d="M982.011 328.683C984.294 330.686 986.071 333.17 987.205 335.941C988.125 338.59 988.858 341.297 989.399 344.043C990.729 349.313 992.923 354.358 994.097 359.647C996.097 368.684 995.078 378.101 991.185 386.542C989.806 389.487 988.078 392.319 987.36 395.479C987.088 396.689 986.962 397.945 986.603 399.136C986.009 400.798 985.186 402.375 984.156 403.825L968.235 428.572C967.624 427.128 966.702 425.826 965.53 424.753C964.359 423.679 962.964 422.859 961.439 422.346C958.375 421.347 955.091 421.156 951.925 421.792C953.11 419.992 953.634 417.976 954.838 416.166C955.499 415.205 956.105 414.209 956.653 413.184C957.195 412.071 957.669 410.928 958.07 409.761L960.158 404.069C962.604 397.42 965.012 390.771 967.157 384.02C968.45 380.087 969.474 376.078 970.225 372.016C970.459 370.984 970.486 369.917 970.303 368.875C969.977 367.846 969.479 366.877 968.827 366.005C966.511 362.209 964.502 358.247 962.818 354.152C961.556 351.292 960.284 348.075 961.42 345.168C962.142 343.629 963.21 342.265 964.546 341.174C969.838 336.361 975.701 332.168 982.011 328.683V328.683Z" fill="#3C354C"/>
<path opacity="0.1" d="M901.103 645.531L902.268 643.215C900.035 632.806 901.142 621.965 902.268 611.331L905.384 582.148C905.879 577.459 906.355 572.771 905.792 568.138C905.064 562.512 902.773 556.885 904.2 551.362C904.598 549.843 905.258 548.417 905.695 546.907C906.216 544.783 906.496 542.61 906.53 540.427L907.782 517.481C907.986 513.805 908.316 509.829 909.869 506.546V505.918L905.869 472.665L895.307 645.531H901.103Z" fill="black"/>
<path d="M810.244 659.869C813.156 654.702 809.856 648.363 806.079 643.759C802.303 639.154 797.72 634.381 797.817 628.483C797.963 620.043 807.234 615.063 814.642 610.581C820.142 607.264 825.213 603.326 829.748 598.849C831.648 597.128 833.219 595.097 834.388 592.848C835.922 589.547 835.883 585.796 835.786 582.186C835.456 570.145 834.838 558.113 833.932 546.091" stroke="#3F3D56" stroke-width="4" stroke-miterlimit="10"/>
<path d="M848.018 545.435C847.915 543.231 847.238 541.087 846.051 539.202C844.863 537.317 843.202 535.752 841.223 534.651L838.174 540.484L838.271 533.422C836.813 533.01 835.295 532.832 833.777 532.897C831.095 533.026 828.513 533.918 826.356 535.463C824.199 537.007 822.564 539.134 821.657 541.575C820.75 544.016 820.612 546.661 821.26 549.178C821.908 551.695 823.313 553.97 825.298 555.716C827.283 557.462 829.759 558.602 832.413 558.99C835.068 559.379 837.782 558.999 840.213 557.899C842.645 556.8 844.685 555.029 846.075 552.811C847.466 550.592 848.146 548.026 848.028 545.435H848.018Z" fill="#57B894"/>
<path d="M823.719 634.512C822.29 637.188 819.952 639.308 817.097 640.517C814.242 641.726 811.044 641.95 808.039 641.152C805.033 640.354 802.403 638.582 800.588 636.134C798.774 633.686 797.886 630.71 798.074 627.704C798.261 624.699 799.512 621.847 801.617 619.626C803.722 617.406 806.553 615.952 809.636 615.508C812.719 615.064 815.866 615.657 818.55 617.188C821.234 618.718 823.292 621.094 824.379 623.916L815.865 630.639L825.233 628.548C825.224 630.624 824.705 632.668 823.719 634.512V634.512Z" fill="#57B894"/>
<path d="M816.991 608.959C813.606 609.19 810.253 608.189 807.593 606.153C804.933 604.117 803.158 601.194 802.616 597.958C802.075 594.721 802.806 591.406 804.667 588.665C806.528 585.923 809.383 583.953 812.671 583.142L812.593 588.562L815.681 582.664C817.468 582.579 819.256 582.837 820.94 583.421C822.624 584.006 824.173 584.906 825.496 586.07C826.819 587.234 827.891 588.639 828.651 590.205C829.411 591.77 829.843 593.465 829.922 595.192C830.002 596.711 829.805 598.231 829.34 599.684C828.521 602.27 826.895 604.549 824.685 606.209C822.475 607.869 819.788 608.83 816.991 608.959Z" fill="#57B894"/>
<path d="M850.067 587.7C847.975 587.774 845.895 587.381 843.986 586.55C842.078 585.72 840.394 584.476 839.066 582.914C837.737 581.351 836.8 579.514 836.327 577.545C835.855 575.575 835.859 573.527 836.341 571.56C836.822 569.592 837.768 567.759 839.103 566.202C840.439 564.646 842.128 563.408 844.04 562.586C845.952 561.764 848.035 561.379 850.126 561.462C852.217 561.546 854.26 562.094 856.096 563.065L853.688 569.442L858.639 564.847C861.293 567.194 862.874 570.462 863.037 573.933C863.102 575.153 862.987 576.374 862.697 577.563C862.025 580.352 860.426 582.852 858.146 584.682C855.866 586.512 853.029 587.572 850.067 587.7V587.7Z" fill="#57B894"/>
<path opacity="0.1" d="M846.184 548.942C843.038 549.27 839.98 550.218 836.825 550.405C833.67 550.593 830.204 549.871 828.204 547.498C827.136 546.223 826.593 544.61 825.69 543.213C824.827 541.915 823.647 540.842 822.253 540.09C821.431 541.75 820.979 543.558 820.927 545.397C820.875 547.237 821.224 549.066 821.951 550.767C822.678 552.468 823.768 554.002 825.148 555.27C826.529 556.538 828.17 557.511 829.965 558.127C831.76 558.743 833.669 558.987 835.568 558.845C837.467 558.702 839.314 558.175 840.989 557.298C842.664 556.422 844.129 555.215 845.29 553.756C846.451 552.297 847.281 550.619 847.727 548.83C847.216 548.849 846.701 548.886 846.184 548.942Z" fill="black"/>
<path opacity="0.1" d="M850.067 587.7C847.717 587.815 845.376 587.339 843.274 586.318C841.172 585.297 839.38 583.767 838.074 581.877C836.768 579.986 835.992 577.801 835.822 575.534C835.653 573.267 836.095 570.997 837.107 568.945C838.188 569.647 839.117 570.545 839.844 571.589C840.815 573.005 841.407 574.646 842.543 575.94C844.669 578.35 848.29 579.138 851.581 578.997C854.872 578.857 858.047 577.947 861.29 577.656C861.746 577.656 862.202 577.591 862.668 577.581C861.993 580.362 860.398 582.855 858.124 584.681C855.85 586.507 853.021 587.567 850.067 587.7V587.7Z" fill="black"/>
<path opacity="0.1" d="M816.991 608.959C814.663 609.072 812.344 608.606 810.256 607.604C808.169 606.602 806.383 605.099 805.071 603.238C803.759 601.377 802.964 599.221 802.763 596.978C802.562 594.735 802.962 592.479 803.924 590.428C805.054 591.142 806.041 592.047 806.836 593.101C807.895 594.545 808.555 596.214 809.797 597.546C812.098 600.012 815.962 600.884 819.438 600.809C822.913 600.734 826.068 599.937 829.417 599.684C828.594 602.282 826.957 604.569 824.731 606.23C822.506 607.891 819.801 608.845 816.991 608.959V608.959Z" fill="black"/>
<path opacity="0.1" d="M823.719 634.512C822.245 637.695 819.523 640.181 816.151 641.424C812.779 642.668 809.034 642.566 805.739 641.142C802.445 639.718 799.871 637.089 798.584 633.832C797.297 630.575 797.402 626.957 798.876 623.775C800 624.485 801.008 625.355 801.866 626.354C803.167 627.873 804.021 629.608 805.516 631.043C808.302 633.687 812.797 634.794 816.807 634.878C819.116 634.889 821.424 634.766 823.719 634.512V634.512Z" fill="black"/>
<path d="M789.692 653.914C789.692 653.914 800.448 653.596 803.691 651.364C806.933 649.132 820.195 646.478 821.03 650.051C821.865 653.624 837.194 667.868 825.059 667.924C812.923 667.981 796.847 666.105 793.604 664.173C790.362 662.242 789.692 653.914 789.692 653.914Z" fill="#656380"/>
<path opacity="0.2" d="M825.272 666.687C813.127 666.78 797.06 664.811 793.827 662.936C791.362 661.482 790.381 656.287 790.051 653.886H789.692C789.692 653.886 790.371 662.27 793.575 664.202C796.779 666.133 812.885 668.018 825.03 667.953C828.534 667.953 829.738 666.724 829.67 664.942C829.214 665.993 827.884 666.659 825.272 666.687Z" fill="black"/>
<path d="M56.6957 670.184C53.7833 665.017 57.084 658.678 60.8605 654.074C64.637 649.469 69.2193 644.696 69.1222 638.798C68.9766 630.358 59.7052 625.379 52.2979 620.896C46.7977 617.58 41.7266 613.641 37.192 609.165C35.2916 607.444 33.7206 605.412 32.5515 603.163C31.0176 599.862 31.0564 596.111 31.1535 592.501C31.4836 580.46 32.1017 568.429 33.0078 556.407" stroke="#3F3D56" stroke-width="4" stroke-miterlimit="10"/>
<path d="M18.9212 555.75C19.0245 553.546 19.7012 551.402 20.889 549.517C22.0768 547.633 23.7372 546.067 25.717 544.966L28.7653 550.799L28.6682 543.738C30.1264 543.325 31.6451 543.148 33.1631 543.213C35.8446 543.341 38.4267 544.234 40.5835 545.778C42.7404 547.322 44.3754 549.449 45.2824 551.89C46.1894 554.331 46.3276 556.977 45.6797 559.493C45.0317 562.01 43.6267 564.285 41.6417 566.031C39.6568 567.778 37.1809 568.917 34.5264 569.305C31.8719 569.694 29.1578 569.314 26.7263 568.215C24.2949 567.115 22.2551 565.344 20.8643 563.126C19.4735 560.908 18.794 558.341 18.9115 555.75H18.9212Z" fill="#57B894"/>
<path d="M43.2208 644.828C44.65 647.503 46.9879 649.623 49.8426 650.832C52.6974 652.041 55.8956 652.265 58.9012 651.467C61.9068 650.669 64.5371 648.898 66.3513 646.449C68.1656 644.001 69.0535 641.025 68.8662 638.019C68.679 635.014 67.428 632.162 65.3229 629.942C63.2178 627.721 60.3865 626.267 57.3036 625.823C54.2206 625.379 51.0734 625.972 48.3893 627.503C45.7052 629.034 43.6473 631.409 42.5606 634.231L51.0747 640.917L41.7451 638.826C41.7366 640.911 42.2424 642.969 43.2208 644.828V644.828Z" fill="#57B894"/>
<path d="M49.9485 619.274C53.3339 619.505 56.6863 618.504 59.3464 616.468C62.0065 614.432 63.7819 611.509 64.3235 608.273C64.865 605.037 64.1335 601.722 62.2729 598.98C60.4122 596.238 57.557 594.268 54.2687 593.457L54.3463 598.878L51.2591 592.979C49.4715 592.895 47.6841 593.152 45.9997 593.737C44.3153 594.321 42.7671 595.221 41.4438 596.385C40.1205 597.55 39.0482 598.955 38.2886 600.52C37.529 602.086 37.0969 603.78 37.0173 605.508C36.9375 607.026 37.1347 608.547 37.5998 609.999C38.4185 612.586 40.0442 614.865 42.2545 616.525C44.4648 618.185 47.1519 619.145 49.9485 619.274Z" fill="#57B894"/>
<path d="M16.8728 598.015C18.9643 598.089 21.0452 597.696 22.9535 596.866C24.8617 596.035 26.5457 594.791 27.8742 593.229C29.2027 591.667 30.1398 589.829 30.6124 587.86C31.085 585.89 31.0804 583.842 30.5989 581.875C30.1175 579.908 29.1721 578.074 27.8366 576.518C26.5012 574.961 24.8116 573.724 22.8996 572.901C20.9876 572.079 18.9049 571.695 16.8138 571.778C14.7227 571.861 12.6797 572.409 10.844 573.38L13.2517 579.757L8.3005 575.162C5.64002 577.506 4.05134 580.774 3.88328 584.249C3.81864 585.468 3.93303 586.69 4.22306 587.878C4.89655 590.67 6.49766 593.172 8.78183 595.003C11.066 596.833 13.9077 597.891 16.8728 598.015V598.015Z" fill="#57B894"/>
<path opacity="0.1" d="M20.7561 559.258C23.9015 559.586 26.9596 560.533 30.1147 560.72C33.2699 560.908 36.7357 560.186 38.7356 557.813C39.8035 556.538 40.3472 554.925 41.25 553.528C42.1123 552.23 43.2927 551.157 44.6867 550.405C45.5088 552.065 45.9604 553.873 46.0124 555.713C46.0644 557.552 45.7155 559.381 44.9883 561.082C44.2612 562.783 43.1721 564.317 41.7916 565.585C40.4111 566.853 38.7701 567.826 36.975 568.442C35.18 569.058 33.2709 569.303 31.3718 569.16C29.4726 569.017 27.6257 568.49 25.9508 567.614C24.276 566.737 22.8106 565.53 21.6497 564.071C20.4889 562.612 19.6585 560.934 19.2125 559.145C19.7238 559.164 20.2383 559.201 20.7561 559.258Z" fill="black"/>
<path opacity="0.1" d="M16.8728 598.015C19.2227 598.13 21.5632 597.654 23.6655 596.633C25.7677 595.613 27.5597 594.082 28.866 592.192C30.1722 590.302 30.9481 588.116 31.1177 585.849C31.2872 583.582 30.8446 581.312 29.8332 579.26C28.7521 579.962 27.8224 580.86 27.0955 581.904C26.1247 583.32 25.5325 584.961 24.3966 586.255C22.2706 588.665 18.6494 589.453 15.3583 589.313C12.0673 589.172 8.89269 588.262 5.65017 587.972C5.19388 587.972 4.7376 587.906 4.27161 587.897C4.94646 590.678 6.54196 593.17 8.81606 594.996C11.0902 596.822 13.9188 597.882 16.8728 598.015V598.015Z" fill="black"/>
<path opacity="0.1" d="M49.9485 619.274C52.2765 619.388 54.5957 618.921 56.6833 617.919C58.7708 616.918 60.5565 615.414 61.8688 613.553C63.1811 611.692 63.9758 609.537 64.1767 607.293C64.3775 605.05 63.9778 602.795 63.0157 600.744C61.8854 601.457 60.8985 602.362 60.1033 603.416C59.0451 604.86 58.3849 606.53 57.1908 607.861C54.89 610.328 51.0261 611.2 47.5506 611.125C44.0751 611.05 40.9199 610.253 37.5706 609.999C38.3911 612.59 40.0211 614.872 42.2372 616.532C44.4532 618.193 47.1468 619.15 49.9485 619.274Z" fill="black"/>
<path opacity="0.1" d="M43.2208 644.828C44.6948 648.01 47.4172 650.496 50.789 651.739C54.1609 652.983 57.9059 652.881 61.2003 651.457C64.4947 650.034 67.0686 647.404 68.3558 644.147C69.643 640.89 69.538 637.273 68.064 634.09C66.9394 634.801 65.9315 635.67 65.0739 636.669C63.773 638.188 62.9187 639.923 61.4236 641.358C58.6374 644.002 54.1425 645.109 50.133 645.193C47.8235 645.204 45.5153 645.082 43.2208 644.828V644.828Z" fill="black"/>
<path d="M77.2479 664.23C77.2479 664.23 66.4913 663.911 63.2487 661.679C60.0062 659.447 46.7448 656.793 45.9099 660.366C45.075 663.939 29.7458 678.184 41.881 678.24C54.0163 678.296 70.093 676.421 73.3355 674.489C76.578 672.557 77.2479 664.23 77.2479 664.23Z" fill="#656380"/>
<path opacity="0.2" d="M41.6675 677.002C53.8124 677.096 69.8794 675.126 73.1122 673.251C75.5781 671.797 76.5586 666.602 76.8887 664.202H77.2479C77.2479 664.202 76.5684 672.585 73.3647 674.517C70.161 676.449 54.0551 678.334 41.9102 678.268C38.4055 678.268 37.2017 677.039 37.2697 675.258C37.726 676.308 39.056 676.974 41.6675 677.002Z" fill="black"/>
<defs>
<linearGradient id="paint0_linear" x1="121.342" y1="685.845" x2="121.342" y2="244.857" gradientUnits="userSpaceOnUse">
<stop stop-color="#808080" stop-opacity="0.25"/>
<stop offset="0.54" stop-color="#808080" stop-opacity="0.12"/>
<stop offset="1" stop-color="#808080" stop-opacity="0.1"/>
</linearGradient>
<linearGradient id="paint1_linear" x1="235438" y1="371566" x2="235438" y2="145489" gradientUnits="userSpaceOnUse">
<stop stop-color="#808080" stop-opacity="0.25"/>
<stop offset="0.54" stop-color="#808080" stop-opacity="0.12"/>
<stop offset="1" stop-color="#808080" stop-opacity="0.1"/>
</linearGradient>
</defs>
</svg>
