<svg width="359" height="175" viewBox="0 0 359 175" fill="none" xmlns="http://www.w3.org/2000/svg">
<path d="M80.0827 102.566L78.1724 101.421C77.9902 101.312 77.811 101.195 77.6288 101.084C81.6944 100.41 85.4013 98.4222 88.1404 95.4482C90.8796 92.4742 92.4882 88.6904 92.7019 84.7184C92.9156 80.7465 91.7218 76.8225 89.3165 73.5912C86.9113 70.3599 83.4376 68.0133 79.4662 66.937L79.5603 74.1576L75.4451 66.3016H75.3935C70.5779 66.0861 65.8706 67.7232 62.3066 70.8529C58.7426 73.9826 56.6136 78.3488 56.3877 82.9915C56.3694 83.3282 56.3877 83.6562 56.3877 83.987C54.9572 82.4118 53.6543 80.7223 52.7948 78.8717C51.0546 75.1268 51.0212 70.884 51.1579 65.7248C51.4312 55.5059 51.8898 45.205 52.4851 34.9393C56.7824 34.478 60.7683 32.5549 63.7274 29.5153C66.6864 26.4757 68.4246 22.5187 68.63 18.3548C68.6543 17.8189 68.63 17.2919 68.63 16.7648C68.63 16.6331 68.63 16.5043 68.6087 16.3725C68.5723 15.863 68.5237 15.3594 68.4417 14.8616C68.4417 14.7796 68.4113 14.7006 68.3961 14.6215C68.3232 14.1999 68.2321 13.7841 68.1289 13.3742C68.0894 13.219 68.0499 13.0814 68.0074 12.9145C67.8798 12.4665 67.7401 12.036 67.5761 11.591C67.5215 11.4475 67.4577 11.2982 67.4 11.1635C67.2724 10.8443 67.1327 10.5281 66.9839 10.2177C66.905 10.0538 66.829 9.88979 66.747 9.72874C66.7227 9.68775 66.7075 9.64383 66.6832 9.60283C64.7637 5.94991 61.5777 3.06059 57.6785 1.43666C53.7794 -0.187269 49.4134 -0.443218 45.3389 0.713271L45.4604 10.1123L41.3907 2.34712C38.0472 4.19473 35.403 7.02342 33.8434 10.421C32.2837 13.8187 31.8901 17.6077 32.72 21.236H32.7018C32.7291 21.3619 32.7686 21.4819 32.799 21.6049C32.8567 21.8362 32.9174 22.0646 32.9842 22.293C33.0692 22.5858 33.1664 22.8786 33.2667 23.1714C33.3426 23.3881 33.4155 23.6018 33.5005 23.8156C33.625 24.126 33.7647 24.4276 33.9044 24.7291C33.9864 24.9048 34.0593 25.0864 34.1474 25.2591C34.3782 25.7139 34.6293 26.1561 34.9006 26.5855C34.9947 26.7378 35.101 26.8783 35.2043 27.0277C35.3987 27.3205 35.593 27.6133 35.8117 27.8856C35.9423 28.0583 36.082 28.2252 36.2187 28.3921C36.4191 28.6352 36.6226 28.8753 36.8261 29.1066C36.9749 29.2735 37.1298 29.4345 37.2847 29.5926C37.5094 29.821 37.7372 30.0406 37.9741 30.2544C38.132 30.3979 38.2778 30.5472 38.4509 30.6819C38.7181 30.9132 38.9976 31.1299 39.28 31.3436C39.4227 31.452 39.5624 31.5632 39.7082 31.6686C40.1395 31.9614 40.5829 32.2542 41.0415 32.547C41.1265 32.5968 41.2207 32.6378 41.3057 32.6876C41.6914 32.9043 42.0802 33.1122 42.481 33.2996C42.6542 33.3815 42.8303 33.4547 43.0065 33.5309C43.3345 33.6714 43.6655 33.809 44.0056 33.9349L44.613 34.1399C44.9471 34.2482 45.2873 34.3507 45.6305 34.4327C45.8309 34.4854 46.0344 34.541 46.2379 34.5879C46.6084 34.6728 46.988 34.7431 47.3707 34.8075L47.4436 34.8221C47.1945 39.1537 46.9718 43.4862 46.7754 47.8198C45.6922 45.6738 44.1657 43.7638 42.2894 42.2071C40.4131 40.6503 38.2267 39.4796 35.8643 38.7667C33.5019 38.0538 31.0133 37.8139 28.5513 38.0615C26.0892 38.3091 23.7056 39.0392 21.5467 40.2068L24.7599 48.6982L18.1482 42.5785C14.6037 45.7034 12.491 50.0572 12.2746 54.6831C12.1811 56.3083 12.3284 57.938 12.7119 59.5232C13.5433 62.9418 15.4208 66.0406 18.1011 68.418C20.7813 70.7954 24.1406 72.3415 27.7433 72.8559C31.346 73.3703 35.0259 72.8293 38.3058 71.303C41.5857 69.7766 44.3142 67.3354 46.1376 64.2959C46.1376 64.7351 46.1073 65.1743 46.0951 65.6164C45.9736 70.1666 45.8218 75.8295 48.1755 80.8862C49.77 84.3121 52.3332 87.0966 54.857 89.5913C56.5061 91.2135 58.216 92.7858 59.9683 94.3055C61.6936 96.5385 63.944 98.3448 66.5344 99.576C69.4136 101.713 72.3959 103.725 75.4785 105.581L77.404 106.735C79.1351 107.769 80.9088 108.832 82.646 109.935C82.3422 109.906 82.0385 109.874 81.7348 109.859C77.8806 109.686 74.0691 110.699 70.8513 112.752C67.6335 114.805 65.1762 117.791 63.8345 121.279L75.193 130.189L62.6986 127.395C62.702 130.359 63.4846 133.274 64.9732 135.867C66.4618 138.461 68.6079 140.648 71.211 142.225C73.8141 143.802 76.7893 144.717 79.8587 144.884C82.928 145.052 85.9914 144.467 88.7626 143.183L87.9183 144.194C87.3594 144.863 86.8077 145.529 86.2631 146.191C78.8709 155.218 76.8148 163.785 80.4745 170.318L84.9268 168.002C81.3643 161.642 86.7217 153.502 90.2325 149.215C90.767 148.565 91.3096 147.911 91.8604 147.253C96.583 141.596 101.934 135.184 101.804 127.319C101.612 115.449 89.6737 108.305 80.0827 102.566Z" fill="#F2F2F2"/>
<path d="M179.5 175C278.635 175 359 172.249 359 168.855C359 165.46 278.635 162.709 179.5 162.709C80.3649 162.709 0 165.46 0 168.855C0 172.249 80.3649 175 179.5 175Z" fill="#3F3D56"/>
<path d="M32.9907 166.806C32.1116 165.211 33.1079 163.253 34.2478 161.831C35.3877 160.41 36.7709 158.936 36.7415 157.115C36.6976 154.509 33.8991 152.971 31.6632 151.587C30.003 150.563 28.4723 149.347 27.1035 147.965C26.5281 147.438 26.051 146.816 25.694 146.126C25.231 145.107 25.2427 143.949 25.2721 142.834C25.3717 139.116 25.5583 135.401 25.8318 131.689" stroke="#3F3D56" stroke-width="4" stroke-miterlimit="10"/>
<path d="M21.4369 130.924C21.4688 130.236 21.6785 129.567 22.0464 128.979C22.4143 128.39 22.9287 127.902 23.5419 127.558L24.4861 129.378L24.4561 127.175C24.9077 127.046 25.3782 126.99 25.8484 127.011C26.6791 127.05 27.4793 127.328 28.1478 127.81C28.8163 128.292 29.3232 128.955 29.6046 129.717C29.886 130.479 29.9293 131.305 29.7289 132.09C29.5285 132.876 29.0935 133.586 28.4787 134.132C27.864 134.677 27.097 135.033 26.2747 135.154C25.4523 135.276 24.6114 135.157 23.8581 134.814C23.1048 134.471 22.4728 133.918 22.0419 133.226C21.611 132.534 21.4004 131.733 21.4369 130.924Z" fill="#57B894"/>
<path d="M28.7854 158.735C29.2284 159.57 29.953 160.231 30.8379 160.608C31.7227 160.986 32.714 161.056 33.6456 160.807C34.5772 160.558 35.3925 160.005 35.9549 159.241C36.5172 158.477 36.7924 157.548 36.7344 156.61C36.6764 155.672 36.2886 154.782 35.6361 154.089C34.9836 153.396 34.106 152.943 33.1505 152.804C32.1949 152.665 31.2193 152.851 30.3874 153.328C29.5554 153.806 28.9176 154.547 28.5807 155.428L31.2198 157.514L28.322 156.868C28.3221 157.517 28.481 158.157 28.7854 158.735Z" fill="#57B894"/>
<path d="M30.756 150.993C31.7926 151.065 32.8192 150.754 33.6337 150.121C34.4483 149.487 34.9919 148.578 35.1577 147.571C35.3236 146.565 35.0996 145.534 34.5298 144.681C33.9601 143.828 33.0858 143.215 32.0789 142.963L32.1027 144.649L31.1573 142.814C30.6099 142.788 30.0626 142.868 29.5469 143.05C29.0311 143.232 28.557 143.512 28.1518 143.874C27.7466 144.236 27.4182 144.673 27.1856 145.16C26.953 145.647 26.8207 146.174 26.7963 146.711C26.7719 147.184 26.8323 147.657 26.9747 148.108C27.2254 148.913 27.7232 149.622 28.4 150.138C29.0768 150.654 29.8997 150.953 30.756 150.993Z" fill="#57B894"/>
<path d="M20.8786 144.562C21.529 144.586 22.176 144.463 22.7694 144.204C23.3628 143.945 23.8864 143.556 24.2995 143.069C24.7126 142.581 25.004 142.008 25.151 141.393C25.2979 140.779 25.2965 140.14 25.1468 139.526C24.9971 138.912 24.7031 138.34 24.2878 137.854C23.8726 137.368 23.3472 136.982 22.7527 136.725C22.1581 136.469 21.5105 136.349 20.8603 136.375C20.21 136.401 19.5748 136.572 19.004 136.875L19.7526 138.865L18.213 137.431C17.388 138.163 16.8962 139.183 16.8455 140.266C16.8254 140.647 16.861 141.028 16.9512 141.399C17.1603 142.269 17.6573 143.05 18.3664 143.621C19.0754 144.192 19.9577 144.523 20.8786 144.562Z" fill="#57B894"/>
<path opacity="0.1" d="M21.9176 132.103C22.9055 132.205 23.8659 132.5 24.8569 132.559C25.8478 132.617 26.9363 132.392 27.5644 131.654C27.8998 131.257 28.0705 130.755 28.3541 130.32C28.6249 129.916 28.9957 129.582 29.4335 129.348C29.6923 129.865 29.8346 130.428 29.8512 131.001C29.8679 131.574 29.7584 132.143 29.53 132.673C29.3016 133.203 28.9594 133.681 28.5255 134.076C28.0916 134.471 27.5758 134.774 27.0116 134.965C26.4474 135.157 25.8473 135.233 25.2505 135.188C24.6536 135.143 24.0733 134.979 23.5472 134.705C23.0211 134.432 22.5609 134.055 22.1967 133.601C21.8324 133.146 21.5722 132.623 21.4328 132.065C21.5934 132.065 21.755 132.078 21.9176 132.103Z" fill="black"/>
<path opacity="0.1" d="M20.7872 144.56C21.5232 144.596 22.2563 144.447 22.9148 144.129C23.5733 143.811 24.1346 143.334 24.5438 142.744C24.9529 142.155 25.196 141.474 25.2491 140.767C25.3022 140.06 25.1635 139.352 24.8467 138.712C24.5081 138.931 24.2169 139.211 23.9892 139.537C23.6851 139.978 23.4996 140.49 23.1438 140.894C22.4779 141.645 21.3436 141.891 20.3128 141.847C19.2819 141.803 18.2875 141.519 17.2719 141.429C17.129 141.429 16.9861 141.408 16.8401 141.405C17.0515 142.272 17.5512 143.049 18.2635 143.619C18.9759 144.188 19.8619 144.519 20.7872 144.56Z" fill="black"/>
<path opacity="0.1" d="M30.7009 150.998C31.4362 151.034 32.1688 150.887 32.8282 150.571C33.4876 150.254 34.0516 149.78 34.4661 149.193C34.8806 148.605 35.1317 147.925 35.1951 147.217C35.2586 146.509 35.1323 145.798 34.8284 145.15C34.4714 145.376 34.1596 145.661 33.9085 145.994C33.5742 146.45 33.3657 146.976 32.9885 147.397C32.2617 148.175 31.0413 148.45 29.9434 148.426C28.8456 148.403 27.849 148.151 26.791 148.071C27.0502 148.889 27.5651 149.609 28.2651 150.133C28.9651 150.657 29.8159 150.959 30.7009 150.998Z" fill="black"/>
<path opacity="0.1" d="M29.0874 159.08C29.5209 160.086 30.3215 160.872 31.313 161.265C32.3046 161.658 33.4059 161.626 34.3746 161.176C35.3434 160.726 36.1003 159.895 36.4789 158.865C36.8574 157.835 36.8265 156.692 36.393 155.686C36.0623 155.91 35.7659 156.185 35.5137 156.501C35.1312 156.981 34.88 157.53 34.4403 157.983C33.621 158.819 32.2992 159.169 31.1201 159.196C30.4409 159.199 29.7622 159.16 29.0874 159.08Z" fill="black"/>
<path d="M39.8038 164.968C39.8038 164.968 36.3064 164.873 35.2521 164.207C34.1979 163.542 29.886 162.75 29.6146 163.816C29.3431 164.881 24.359 169.13 28.3046 169.147C32.2503 169.164 37.4775 168.604 38.5318 168.028C39.586 167.452 39.8038 164.968 39.8038 164.968Z" fill="#656380"/>
<path opacity="0.2" d="M28.2233 168.778C32.1762 168.805 37.4056 168.232 38.4578 167.686C39.2604 167.262 39.5795 165.749 39.6869 165.05H39.8038C39.8038 165.05 39.5827 167.492 38.5399 168.054C37.4972 168.617 32.2552 169.166 28.3023 169.147C27.1616 169.147 26.7698 168.789 26.7919 168.27C26.9404 168.59 27.3733 168.77 28.2233 168.778Z" fill="black"/>
<path d="M300.708 32.7759H58.2922C54.8454 32.7759 52.0512 35.4396 52.0512 38.7255V159.686C52.0512 162.972 54.8454 165.635 58.2922 165.635H300.708C304.155 165.635 306.949 162.972 306.949 159.686V38.7255C306.949 35.4396 304.155 32.7759 300.708 32.7759Z" fill="#F2F2F2"/>
<path d="M52.8166 39.2141H133.955V166.221H58.9989C57.3593 166.221 55.7868 165.591 54.6274 164.47C53.468 163.35 52.8166 161.83 52.8166 160.245V39.2141Z" fill="#6C63FF"/>
<path d="M306.949 38.7517V42.1405H52.0512V38.7517C52.0512 37.1668 52.7087 35.6468 53.8791 34.5262C55.0495 33.4055 56.637 32.7759 58.2922 32.7759H300.708C302.363 32.7759 303.95 33.4055 305.121 34.5262C306.291 35.6468 306.949 37.1668 306.949 38.7517Z" fill="#3F3D56"/>
<path d="M58.9403 39.2141C59.7858 39.2141 60.4712 38.4279 60.4712 37.4582C60.4712 36.4885 59.7858 35.7023 58.9403 35.7023C58.0948 35.7023 57.4094 36.4885 57.4094 37.4582C57.4094 38.4279 58.0948 39.2141 58.9403 39.2141Z" fill="#6C63FF"/>
<path d="M63.1503 39.2141C64.2072 39.2141 65.064 38.4279 65.064 37.4582C65.064 36.4885 64.2072 35.7023 63.1503 35.7023C62.0934 35.7023 61.2367 36.4885 61.2367 37.4582C61.2367 38.4279 62.0934 39.2141 63.1503 39.2141Z" fill="#6C63FF"/>
<path d="M67.7431 39.2141C68.7999 39.2141 69.6567 38.4279 69.6567 37.4582C69.6567 36.4885 68.7999 35.7023 67.7431 35.7023C66.6862 35.7023 65.8294 36.4885 65.8294 37.4582C65.8294 38.4279 66.6862 39.2141 67.7431 39.2141Z" fill="#6C63FF"/>
<path d="M114.819 99.2057C114.819 103.084 113.629 106.874 111.4 110.099C109.171 113.323 106.003 115.836 102.297 117.32C98.5902 118.804 94.5116 119.192 90.5768 118.436C86.6419 117.679 83.0275 115.812 80.1907 113.07C77.3538 110.328 75.4219 106.834 74.6392 103.031C73.8565 99.2274 74.2582 95.2851 75.7935 91.7024C77.3288 88.1197 79.9288 85.0575 83.2646 82.903C86.6003 80.7486 90.5222 79.5987 94.5341 79.5987C97.1983 79.5975 99.8365 80.1039 102.298 81.0888C104.76 82.0737 106.996 83.5179 108.88 85.3388C110.764 87.1597 112.258 89.3217 113.277 91.701C114.296 94.0804 114.82 96.6305 114.819 99.2057Z" stroke="#F2F2F2" stroke-width="2" stroke-miterlimit="10"/>
<path d="M95.8223 92.7306L98.405 96.5278L109.461 112.766C107.329 114.873 104.72 116.504 101.828 117.539C98.9351 118.574 95.8319 118.986 92.7469 118.746C89.6618 118.506 86.6735 117.619 84.0021 116.151C81.3307 114.682 79.0443 112.67 77.3113 110.262L90.8593 85.4515L91.1425 85.8692" stroke="#F2F2F2" stroke-width="2" stroke-linecap="round" stroke-linejoin="round"/>
<path d="M114.053 104.01C113.164 107.147 111.44 110.024 109.041 112.375L97.9787 96.2408L102.864 89.0489C102.882 89.0225 102.908 89.0009 102.938 88.986C102.968 88.971 103.001 88.9632 103.035 88.9632C103.069 88.9632 103.102 88.971 103.132 88.986C103.162 89.0009 103.187 89.0225 103.206 89.0489C104.23 90.4623 109.598 97.9154 114.053 104.01Z" stroke="#F2F2F2" stroke-width="2" stroke-miterlimit="10"/>
<path d="M99.4972 88.1248C99.4978 89.1525 99.1233 90.1485 98.4379 90.9421C97.7524 91.7357 96.7986 92.2776 95.7398 92.4749L91.0895 85.5318C91.6651 84.7726 92.4785 84.2067 93.4128 83.9154C94.3471 83.6241 95.3543 83.6224 96.2897 83.9104C97.2252 84.1985 98.0407 84.7615 98.6192 85.5187C99.1977 86.2759 99.5094 87.1883 99.5096 88.1248H99.4972Z" stroke="#F2F2F2" stroke-width="2" stroke-miterlimit="10"/>
<path d="M169.762 114.568L163.85 110.17C163.728 110.081 163.577 110.033 163.422 110.033C163.266 110.033 163.115 110.081 162.992 110.17L160.419 112.114V110.889C160.419 110.882 160.418 110.874 160.415 110.867C160.412 110.86 160.407 110.853 160.402 110.847C160.396 110.842 160.389 110.837 160.381 110.834C160.374 110.831 160.365 110.83 160.357 110.83H158.482C158.473 110.83 158.465 110.831 158.457 110.834C158.45 110.837 158.443 110.842 158.437 110.847C158.431 110.853 158.427 110.86 158.424 110.867C158.421 110.874 158.42 110.882 158.42 110.889V113.566L157.086 114.585C157.038 114.619 156.999 114.662 156.97 114.711C156.942 114.76 156.924 114.814 156.92 114.87C156.916 114.927 156.926 114.984 156.948 115.038C156.969 115.091 157.003 115.14 157.046 115.181C157.086 115.219 157.134 115.249 157.187 115.27C157.239 115.29 157.296 115.301 157.353 115.301C157.453 115.301 157.551 115.27 157.63 115.213L163.379 110.915C163.393 110.911 163.408 110.911 163.422 110.915C163.436 110.912 163.449 110.912 163.462 110.915L169.215 115.195C169.282 115.244 169.362 115.274 169.446 115.282C169.53 115.289 169.615 115.274 169.69 115.239C169.766 115.203 169.829 115.148 169.871 115.08C169.914 115.012 169.935 114.934 169.931 114.856C169.925 114.8 169.907 114.746 169.878 114.697C169.849 114.648 169.81 114.605 169.762 114.571V114.568Z" fill="#3F3D56"/>
<path opacity="0.3" d="M289.731 76.087H184.853C184.644 76.087 184.475 76.2347 184.475 76.4168V78.6835C184.475 78.8657 184.644 79.0134 184.853 79.0134H289.731C289.94 79.0134 290.109 78.8657 290.109 78.6835V76.4168C290.109 76.2347 289.94 76.087 289.731 76.087Z" fill="#6C63FF"/>
<path opacity="0.3" d="M289.731 114.716H184.853C184.644 114.716 184.475 114.863 184.475 115.046V117.312C184.475 117.494 184.644 117.642 184.853 117.642H289.731C289.94 117.642 290.109 117.494 290.109 117.312V115.046C290.109 114.863 289.94 114.716 289.731 114.716Z" fill="#6C63FF"/>
<path d="M289.732 81.9398H268.288C268.079 81.9398 267.91 82.0958 267.91 82.2882V88.6148C267.91 88.8072 268.079 88.9632 268.288 88.9632H289.732C289.94 88.9632 290.109 88.8072 290.109 88.6148V82.2882C290.109 82.0958 289.94 81.9398 289.732 81.9398Z" fill="#6C63FF"/>
<path d="M289.732 120.569H268.288C268.079 120.569 267.91 120.725 267.91 120.917V127.244C267.91 127.436 268.079 127.592 268.288 127.592H289.732C289.94 127.592 290.109 127.436 290.109 127.244V120.917C290.109 120.725 289.94 120.569 289.732 120.569Z" fill="#6C63FF"/>
<path d="M295.098 133.445L294.524 134.014C294.524 134.014 287.539 134.582 287.821 135.546C288.103 136.511 296.232 134.252 296.232 134.252L295.098 133.445Z" fill="#FFC1C7"/>
<path d="M306.533 132.86C306.533 132.86 299.862 135.208 296.232 134.198L297.92 137.542C297.92 137.542 306.533 137.289 308.054 135.78C309.575 134.272 306.533 132.86 306.533 132.86Z" fill="#FF6584"/>
<path opacity="0.1" d="M306.533 132.86C306.533 132.86 299.862 135.208 296.232 134.198L297.92 137.542C297.92 137.542 306.533 137.289 308.054 135.78C309.575 134.272 306.533 132.86 306.533 132.86Z" fill="black"/>
<path d="M301.591 115.301C304.127 115.301 306.183 113.205 306.183 110.619C306.183 108.033 304.127 105.936 301.591 105.936C299.054 105.936 296.998 108.033 296.998 110.619C296.998 113.205 299.054 115.301 301.591 115.301Z" fill="#FFC1C7"/>
<path d="M305.644 114.884C305.807 115.16 306.013 115.414 306.255 115.638C306.887 116.264 307.641 116.778 308.48 117.153C305.861 117.639 303.216 117.997 300.555 118.227C300.836 117.325 300.466 116.362 299.971 115.543C299.476 114.725 298.841 113.959 298.529 113.065L301.646 113.143C302.212 113.143 302.78 113.171 303.345 113.143C303.77 113.124 304.473 112.893 304.873 112.979C305.68 113.155 305.271 114.21 305.644 114.884Z" fill="#FFC1C7"/>
<path d="M316.344 135.289L318.963 138.288C318.963 138.288 323.324 148.04 313.817 149.029C304.31 150.018 297.222 148.277 297.222 148.277C297.222 148.277 293.379 146.521 293.29 147.861C293.201 149.202 292.855 152.945 290.757 156.612L288.917 160.612C288.636 160.9 288.427 161.244 288.307 161.62C288.186 161.996 288.157 162.393 288.221 162.781C288.482 164.031 282.366 164.446 282.455 162.781C282.455 162.781 283.329 161.365 283.329 160.53C283.329 159.696 284.725 157.698 284.725 157.698L287.258 145.698C287.258 145.698 287.083 139.529 293.024 140.697C298.964 141.865 307.438 140.445 307.438 140.445L309.358 134.03L316.344 135.289Z" fill="#575A89"/>
<path opacity="0.1" d="M316.344 135.289L318.963 138.288C318.963 138.288 323.324 148.04 313.817 149.029C304.31 150.018 297.222 148.277 297.222 148.277C297.222 148.277 293.379 146.521 293.29 147.861C293.201 149.202 292.855 152.945 290.757 156.612L288.917 160.612C288.636 160.9 288.427 161.244 288.307 161.62C288.186 161.996 288.157 162.393 288.221 162.781C288.482 164.031 282.366 164.446 282.455 162.781C282.455 162.781 283.329 161.365 283.329 160.53C283.329 159.696 284.725 157.698 284.725 157.698L287.258 145.698C287.258 145.698 287.083 139.529 293.024 140.697C298.964 141.865 307.438 140.445 307.438 140.445L309.358 134.03L316.344 135.289Z" fill="black"/>
<path d="M327.616 145.484V148.329C327.616 148.418 327.587 148.502 327.535 148.565C327.483 148.627 327.412 148.662 327.339 148.662C327.265 148.662 327.194 148.627 327.142 148.565C327.09 148.502 327.061 148.418 327.061 148.329V145.96C327.061 145.871 327.032 145.787 326.98 145.724C326.928 145.662 326.857 145.627 326.783 145.627H321.56C321.486 145.627 321.416 145.662 321.363 145.724C321.311 145.787 321.282 145.871 321.282 145.96V148.329C321.282 148.418 321.253 148.502 321.201 148.565C321.149 148.627 321.078 148.662 321.005 148.662C320.931 148.662 320.86 148.627 320.808 148.565C320.756 148.502 320.727 148.418 320.727 148.329V145.484C320.727 145.395 320.756 145.311 320.808 145.248C320.86 145.186 320.931 145.151 321.005 145.151H327.328C327.365 145.149 327.402 145.156 327.437 145.172C327.472 145.188 327.504 145.212 327.531 145.243C327.558 145.275 327.579 145.312 327.594 145.353C327.609 145.394 327.616 145.439 327.616 145.484Z" fill="#3C354C"/>
<path d="M301.592 166.969C301.573 167.403 301.723 167.828 302.01 168.157C302.297 168.487 302.701 168.697 303.14 168.746L343.748 169.732C343.766 169.734 343.783 169.731 343.8 169.726C343.817 169.72 343.832 169.711 343.845 169.699C343.863 169.684 343.875 169.663 343.878 169.64L344.417 167.176C344.446 167.036 344.459 166.893 344.456 166.75L343.589 148.873C343.58 148.579 343.493 148.293 343.336 148.044L342.734 147.049C342.713 147.017 342.688 146.989 342.658 146.966C342.605 146.927 342.541 146.906 342.475 146.906L304.239 147.466C303.794 147.472 303.368 147.645 303.049 147.95C302.729 148.254 302.54 148.667 302.519 149.104L301.592 166.969Z" fill="#3F3D56"/>
<path opacity="0.1" d="M342.925 147.492L343.941 169.732L343.969 169.675L344.423 167.264C344.448 167.127 344.459 166.987 344.456 166.847L343.725 149.36C343.717 149.073 343.644 148.793 343.512 148.549L343.004 147.576C342.983 147.542 342.956 147.514 342.925 147.492Z" fill="black"/>
<path d="M306.71 135.294C306.71 135.294 314.648 132.409 319.071 138.536C319.071 138.536 320.198 148.019 315.687 148.437C311.176 148.856 305.279 148.773 303.89 147.347C302.501 145.92 293.74 141.892 293.74 141.892C293.74 141.892 289.378 139.741 288.525 142.537C287.672 145.334 287.581 146.006 287.581 146.006C287.581 146.006 283.07 149.194 281.248 149.781C281.248 149.781 280.03 151.461 279.342 151.461C278.653 151.461 274.398 152.383 274.83 149.277L281.858 143.068L288.882 136.437C288.882 136.437 290.877 133.585 295.997 135.094C299.394 136.072 302.839 136.885 306.32 137.528L306.71 135.294Z" fill="#575A89"/>
<path d="M287.772 162.938C287.772 162.938 289.398 166.668 288.03 167.134C286.663 167.601 283.75 167.29 283.75 167.29C283.75 167.29 280.323 166.9 279.47 166.979C278.616 167.058 275.102 166.433 275.616 165.192C276.13 163.95 278.784 164.259 278.784 164.259L281.189 163.249C281.189 163.249 281.448 162.471 282.046 162.782C282.644 163.094 284.348 164.259 287.772 162.938Z" fill="#CBCEDA"/>
<path d="M278.829 151.02C278.829 151.02 280.672 154.819 277.692 154.495C274.713 154.172 272.443 153.607 271.571 153.527C270.698 153.448 268.349 152.698 268.714 151.201C268.734 151.108 268.742 151.013 268.739 150.917C268.739 150.716 269.046 150.324 271.396 150.383C271.396 150.383 273.143 150.383 273.853 149.247C273.844 149.245 276.467 152.317 278.829 151.02Z" fill="#CBCEDA"/>
<path d="M298.529 117.576C298.529 117.576 304.941 113.774 310.287 117.576C315.633 121.379 319.196 138.712 319.196 138.712L306.812 136.091C306.812 136.091 306.28 134.064 305.561 133.716C304.841 133.369 304.757 131.935 304.757 131.935C304.757 131.935 300.928 130.837 301.194 126.61C301.46 122.382 298.529 117.576 298.529 117.576Z" fill="#FF6584"/>
<path d="M301.936 117.642H298.602C298.602 117.642 296.619 119.759 296.35 125.091L295.269 129.333C295.269 129.333 293.017 134.413 294.367 135.26C295.718 136.108 298.333 136.021 298.871 134.33C299.409 132.639 303.122 122.808 303.122 122.808L301.936 117.642Z" fill="#FF6584"/>
<path d="M300.778 105.097C301.562 104.785 302.421 104.691 303.257 104.825C304.093 104.96 304.875 105.318 305.515 105.859C307.159 107.289 307.489 109.624 307.919 111.719C308.348 113.814 309.171 116.176 311.223 116.993C310.305 117.114 309.372 117.087 308.462 116.914L311.542 119.607L306.353 117.957C304.725 117.439 303.016 116.914 301.33 117.207C298.537 117.691 296.59 120.254 293.907 121.154L294.208 119.733H292.405C292.835 119.423 293.187 119.022 293.436 118.561C293.351 118.46 293.247 118.376 293.129 118.316C293.01 118.255 292.881 118.219 292.748 118.209C291.997 113.641 294.778 109.126 298.398 106.146C299.113 105.56 299.901 104.998 300.82 104.851C301.739 104.705 302.815 105.106 303.136 105.959" fill="#3C354C"/>
</svg>
