<?xml version="1.0"?>
<svg xmlns="http://www.w3.org/2000/svg" xmlns:xlink="http://www.w3.org/1999/xlink" version="1.1" id="Layer_1" x="0px" y="0px" viewBox="0 0 512.008 512.008" style="enable-background:new 0 0 512.008 512.008;" xml:space="preserve" width="512px" height="512px" class=""><g><g>
	<polygon points="480.032,459.646 480.032,191.706 390.028,191.706 390.028,459.623 360.025,459.615 360.025,251.71 270.021,251.71    270.021,459.592 240.017,459.584 240.017,311.713 150.013,311.713 150.013,459.561 120.01,459.553 120.01,371.717 30.006,371.717    30.006,459.53 0.008,459.522 0,489.522 512,489.655 512.008,459.655  " data-original="#000000" class="" data-old_color="#000000" fill="#FFFFFF"/>
	<polygon points="79.614,279.007 413.235,83.531 407.206,106.358 436.211,114.019 455.364,41.506 382.851,22.353 375.189,51.358    398.359,57.478 64.448,253.123  " data-original="#000000" class="" data-old_color="#000000" fill="#FFFFFF"/>
</g></g> </svg>
