<?xml version="1.0"?>
<svg xmlns="http://www.w3.org/2000/svg" height="512px" viewBox="0 0 512 512" width="512px" class=""><g><path d="m256 150c-41.355469 0-75-33.644531-75-75s33.644531-75 75-75 75 33.644531 75 75-33.644531 75-75 75zm0 0" data-original="#000000" class="active-path" data-old_color="#000000" fill="#FFFFFF"/><path d="m361 300h-210v-45c0-57.898438 47.101562-105 105-105s105 47.101562 105 105zm0 0" data-original="#000000" class="active-path" data-old_color="#000000" fill="#FFFFFF"/><path d="m225 394.699219v117.300781h-120v-28.800781l-105-127.5v-188.699219c33 0 60 27 60 60v108.601562l86.398438 86.398438 21.300781-21-77.699219-77.699219v-.300781c9-5.699219 19.5-8.699219 30-8.699219 15.902344 0 31.199219 6.300781 42.300781 17.699219zm0 0" data-original="#000000" class="active-path" data-old_color="#000000" fill="#FFFFFF"/><path d="m287 394.699219v117.300781h120v-28.800781l105-127.5v-188.699219c-33 0-60 27-60 60v108.601562l-86.398438 86.398438-21.300781-21 77.699219-77.699219v-.300781c-9-5.699219-19.5-8.699219-30-8.699219-15.902344 0-31.199219 6.300781-42.300781 17.699219zm0 0" data-original="#000000" class="active-path" data-old_color="#000000" fill="#FFFFFF"/></g> </svg>
