<?xml version="1.0"?>
<svg xmlns="http://www.w3.org/2000/svg" id="bold" enable-background="new 0 0 24 24" height="512px" viewBox="0 0 24 24" width="512px" class=""><g><path d="m15 6.5c-.552 0-1-.448-1-1v-1.5h-4v1.5c0 .552-.448 1-1 1s-1-.448-1-1v-1.5c0-1.103.897-2 2-2h4c1.103 0 2 .897 2 2v1.5c0 .552-.448 1-1 1z" data-original="#000000" class="active-path" data-old_color="#000000" fill="#FFFFFF"/><path d="m18 12.5v.92c0 .41-.34.75-.75.75s-.75-.34-.75-.75v-.92h-9v.92c0 .41-.34.75-.75.75s-.75-.34-.75-.75v-.92h-6v6.75c0 1.52 1.23 2.75 2.75 2.75h18.5c1.52 0 2.75-1.23 2.75-2.75v-6.75zm3.25-7.5h-18.5c-1.52 0-2.75 1.23-2.75 2.75v3.25h6v-1.25c0-.41.34-.75.75-.75s.75.34.75.75v1.25h9v-1.25c0-.41.34-.75.75-.75s.75.34.75.75v1.25h6v-3.25c0-1.52-1.23-2.75-2.75-2.75z" data-original="#000000" class="active-path" data-old_color="#000000" fill="#FFFFFF"/></g> </svg>
