<?xml version="1.0"?>
<svg xmlns="http://www.w3.org/2000/svg" id="bold" enable-background="new 0 0 24 24" height="512px" viewBox="0 0 24 24" width="512px"><g><path d="m12.25 2h-1.1c-.33-1.15-1.39-2-2.65-2s-2.32.85-2.65 2h-1.1c-.41 0-.75.34-.75.75v1.5c0 .96.79 1.75 1.75 1.75h5.5c.96 0 1.75-.79 1.75-1.75v-1.5c0-.41-.34-.75-.75-.75z" data-original="#000000" class="active-path" data-old_color="#000000" fill="#E67E19"/><path d="m14.25 3h-.25v1.25c0 1.52-1.23 2.75-2.75 2.75h-5.5c-1.52 0-2.75-1.23-2.75-2.75v-1.25h-.25c-1.52 0-2.75 1.23-2.75 2.75v12.5c0 1.52 1.23 2.75 2.75 2.75h7.84c-.38-.93-.59-1.94-.59-3 0-.17.01-.34.02-.5h-6.27c-.41 0-.75-.34-.75-.75s.34-.75.75-.75h6.5c.16-.62.4-1.2.69-1.75h-7.19c-.41 0-.75-.34-.75-.75s.34-.75.75-.75h8.23c1.26-1.45 3.02-2.44 5.02-2.69v-4.31c0-1.52-1.23-2.75-2.75-2.75zm-1 8h-9.5c-.41 0-.75-.34-.75-.75s.34-.75.75-.75h9.5c.41 0 .75.34.75.75s-.34.75-.75.75z" data-original="#000000" class="active-path" data-old_color="#000000" fill="#E67E19"/><path d="m18 12c-3.308 0-6 2.692-6 6s2.692 6 6 6 6-2.692 6-6-2.692-6-6-6zm2.873 8.664c-.198.222-.473.336-.748.336-.236 0-.473-.083-.664-.252l-2.25-2c-.213-.19-.335-.462-.335-.748v-3c0-.552.448-1 1-1s1 .448 1 1v2.551l1.915 1.702c.411.366.448.998.082 1.411z" data-original="#000000" class="active-path" data-old_color="#000000" fill="#E67E19"/></g> </svg>
