<?xml version="1.0"?>
<svg xmlns="http://www.w3.org/2000/svg" id="Layer_1" enable-background="new 0 0 512 512" height="512px" viewBox="0 0 512 512" width="512px" class=""><g><g><path d="m383 462.5h-37v-19h-180v19h-37c-8.284 0-15 6.716-15 15s6.716 15 15 15h254c8.284 0 15-6.716 15-15s-6.716-15-15-15z" data-original="#000000" class="active-path" data-old_color="#000000" fill="#E87EF4"/><path d="m497 19.5h-407v60h422v-45c0-8.284-6.716-15-15-15z" data-original="#000000" class="active-path" data-old_color="#000000" fill="#E87EF4"/><path d="m0 34.5v364c0 8.284 6.716 15 15 15h45v-394h-45c-8.284 0-15 6.716-15 15z" data-original="#000000" class="active-path" data-old_color="#000000" fill="#E87EF4"/><path d="m90 413.5h407c8.284 0 15-6.716 15-15v-289h-422zm362-78.998c0 8.284-6.716 15-15 15h-63.848c-8.284 0-15-6.716-15-15s6.716-15 15-15h63.848c8.284 0 15 6.716 15 15zm-39-60c0 8.284-6.716 15-15 15h-131c-8.284 0-15-6.716-15-15s6.716-15 15-15h131c8.284 0 15 6.716 15 15zm-105.5-45.002h-40.826c-8.284 0-15-6.716-15-15s6.716-15 15-15h40.826c8.284 0 15 6.716 15 15s-6.716 15-15 15zm-171.5-90h171c8.284 0 15 6.716 15 15s-6.716 15-15 15h-171c-8.284 0-15-6.716-15-15s6.716-15 15-15z" data-original="#000000" class="active-path" data-old_color="#000000" fill="#E87EF4"/></g></g> </svg>
