<?xml version="1.0"?>
<svg xmlns="http://www.w3.org/2000/svg" xmlns:xlink="http://www.w3.org/1999/xlink" version="1.1" id="Capa_1" x="0px" y="0px" viewBox="0 0 490.667 490.667" style="enable-background:new 0 0 490.667 490.667;" xml:space="preserve" width="512px" height="512px"><g><g>
	<g>
		<path d="M245.333,0c-5.888,0-10.667,4.779-10.667,10.667V96c0,5.888,4.779,10.667,10.667,10.667    c76.459,0,138.667,62.208,138.667,138.667S321.792,384,245.333,384s-138.667-62.208-138.667-138.667    c0-5.888-4.779-10.667-10.667-10.667H10.667C4.779,234.667,0,239.445,0,245.333c0,135.275,110.059,245.333,245.333,245.333    s245.333-110.059,245.333-245.333S380.608,0,245.333,0z" data-original="#000000" class="active-path" data-old_color="#000000" fill="#FFFFFF"/>
	</g>
</g><g>
	<g>
		<path d="M245.333,170.667c-41.173,0-74.667,33.493-74.667,74.667S204.16,320,245.333,320S320,286.507,320,245.333    S286.507,170.667,245.333,170.667z" data-original="#000000" class="active-path" data-old_color="#000000" fill="#FFFFFF"/>
	</g>
</g></g> </svg>
