<?xml version="1.0"?>
<svg xmlns="http://www.w3.org/2000/svg" height="512px" viewBox="0 0 512 512" width="512px"><g><g id="Solid"><path d="m432 56a24 24 0 0 0 -48 0v8h48z" data-original="#000000" class="active-path" data-old_color="#000000" fill="#F5E649"/><path d="m203.711 108.644a8 8 0 0 1 5 12.075 4.761 4.761 0 0 0 6.569 6.567 8 8 0 0 1 12.074 5 4.761 4.761 0 0 0 9.288 0 8 8 0 0 1 12.074-5 4.761 4.761 0 0 0 6.569-6.567 8 8 0 0 1 5-12.075 4.761 4.761 0 0 0 0-9.288 8 8 0 0 1 -5-12.075 4.761 4.761 0 0 0 -6.568-6.567 8 8 0 0 1 -12.075-5 4.761 4.761 0 0 0 -9.288 0 8 8 0 0 1 -12.075 5 4.761 4.761 0 0 0 -6.568 6.567 8 8 0 0 1 -5 12.075 4.761 4.761 0 0 0 0 9.288z" data-original="#000000" class="active-path" data-old_color="#000000" fill="#F5E649"/><path d="m96 56v376h216a8 8 0 0 1 8 8v16a24 24 0 0 0 48 0v-400a39.792 39.792 0 0 1 8.019-24h-256.019a24.028 24.028 0 0 0 -24 24zm40 328h-16v-16h16zm0-64h-16v-16h16zm208 64h-48v-16h48zm0-32h-128v-16h128zm0-64h-48v-16h48zm-128-104v-16h80v16zm56 16v16h-80v-16zm-79.922-112.536a20.965 20.965 0 0 1 23.386-23.386 20.964 20.964 0 0 1 33.072 0 20.965 20.965 0 0 1 23.386 23.386 20.964 20.964 0 0 1 0 33.072 20.965 20.965 0 0 1 -23.386 23.386 20.964 20.964 0 0 1 -33.072 0 20.966 20.966 0 0 1 -23.386-23.386 20.964 20.964 0 0 1 0-33.072zm-24.078 80.536h32v16h-32zm-16 72h192v16h-192zm0 32h128v16h-128zm0 32h192v16h-192zm0 32h48v16h-48zm0 32h128v16h-128zm0 32h192v16h-192zm-16-144h-16v-16h16z" data-original="#000000" class="active-path" data-old_color="#000000" fill="#F5E649"/><path d="m304 448h-272v8a24.027 24.027 0 0 0 24 24h256.019a39.792 39.792 0 0 1 -8.019-24z" data-original="#000000" class="active-path" data-old_color="#000000" fill="#F5E649"/><path d="m432 128a16.019 16.019 0 0 0 -16 16h32a16.019 16.019 0 0 0 -16-16z" data-original="#000000" class="active-path" data-old_color="#000000" fill="#F5E649"/><path d="m416 160h32v64h-32z" data-original="#000000" class="active-path" data-old_color="#000000" fill="#F5E649"/><path d="m432 430.111 11.056-22.111h-22.112z" data-original="#000000" class="active-path" data-old_color="#000000" fill="#F5E649"/><path d="m416 240h32v16h-32z" data-original="#000000" class="active-path" data-old_color="#000000" fill="#F5E649"/><path d="m416 272h32v120h-32z" data-original="#000000" class="active-path" data-old_color="#000000" fill="#F5E649"/><path d="m472 144h-8v16h8a8.009 8.009 0 0 1 8 8v88h16v-88a24.028 24.028 0 0 0 -24-24z" data-original="#000000" class="active-path" data-old_color="#000000" fill="#F5E649"/></g></g> </svg>
