<svg width="26" height="26" viewBox="0 0 26 26" fill="none" xmlns="http://www.w3.org/2000/svg">
<path d="M23.9376 16.5045C23.0759 15.7473 22.0309 15.0931 20.8314 14.5601C20.3186 14.3324 19.7186 14.5633 19.4909 15.0759C19.2632 15.5885 19.494 16.1885 20.0066 16.4164C21.0181 16.8659 21.8897 17.4088 22.5969 18.0303C23.4687 18.7964 23.9688 19.9057 23.9688 21.0742V22.9531C23.9688 23.5131 23.5131 23.9688 22.9531 23.9688H3.04688C2.48689 23.9688 2.03125 23.5131 2.03125 22.9531V21.0742C2.03125 19.9057 2.53133 18.7964 3.40314 18.0303C4.42928 17.1286 7.41902 15.0312 13 15.0312C17.144 15.0312 20.5156 11.6597 20.5156 7.51562C20.5156 3.3716 17.144 0 13 0C8.85597 0 5.48438 3.3716 5.48438 7.51562C5.48438 9.93825 6.63687 12.0965 8.42215 13.4717C5.15549 14.1898 3.12344 15.572 2.06239 16.5045C0.751801 17.656 0 19.3215 0 21.0742V22.9531C0 24.6333 1.36673 26 3.04688 26H22.9531C24.6333 26 26 24.6333 26 22.9531V21.0742C26 19.3215 25.2482 17.656 23.9376 16.5045ZM7.51562 7.51562C7.51562 4.49156 9.97594 2.03125 13 2.03125C16.0241 2.03125 18.4844 4.49156 18.4844 7.51562C18.4844 10.5397 16.0241 13 13 13C9.97594 13 7.51562 10.5397 7.51562 7.51562Z" fill="#9399AB"/>
</svg>
